<svg width="1607" height="418" viewBox="0 0 1607 418" fill="none" xmlns="http://www.w3.org/2000/svg">
<rect width="1607" height="418" fill="white"/>
<path d="M78.6612 338.276C78.5476 337.13 78.0599 336.24 77.1982 335.605C76.3364 334.971 75.1669 334.653 73.6896 334.653C72.6858 334.653 71.8383 334.795 71.147 335.08C70.4557 335.354 69.9254 335.738 69.5561 336.23C69.1963 336.723 69.0163 337.281 69.0163 337.906C68.9974 338.427 69.1063 338.882 69.343 339.27C69.5893 339.658 69.9254 339.994 70.3516 340.278C70.7777 340.553 71.2701 340.795 71.8288 341.003C72.3875 341.202 72.9841 341.372 73.6186 341.514L76.2322 342.139C77.5012 342.423 78.666 342.802 79.7266 343.276C80.7872 343.749 81.7057 344.331 82.4822 345.023C83.2588 345.714 83.8601 346.528 84.2862 347.466C84.7218 348.403 84.9444 349.478 84.9538 350.69C84.9444 352.471 84.4898 354.014 83.5902 355.321C82.7 356.618 81.4122 357.627 79.7266 358.347C78.0504 359.057 76.0286 359.412 73.6612 359.412C71.3127 359.412 69.2673 359.052 67.5249 358.332C65.7919 357.613 64.4377 356.547 63.4624 355.136C62.4964 353.716 61.9898 351.959 61.9425 349.866H67.8942C67.9605 350.842 68.2398 351.656 68.7322 352.31C69.2341 352.954 69.9018 353.441 70.7351 353.773C71.5779 354.095 72.5296 354.256 73.5902 354.256C74.6319 354.256 75.5362 354.104 76.3033 353.801C77.0798 353.498 77.6811 353.077 78.1072 352.537C78.5334 351.997 78.7464 351.377 78.7464 350.676C78.7464 350.023 78.5523 349.473 78.1641 349.028C77.7853 348.583 77.2266 348.205 76.4879 347.892C75.7588 347.58 74.8639 347.295 73.8033 347.04L70.6357 346.244C68.183 345.648 66.2464 344.715 64.826 343.446C63.4055 342.177 62.7 340.468 62.7095 338.318C62.7 336.557 63.1688 335.018 64.1158 333.702C65.0722 332.385 66.3838 331.358 68.0504 330.619C69.7171 329.881 71.611 329.511 73.7322 329.511C75.8913 329.511 77.7758 329.881 79.3857 330.619C81.005 331.358 82.2644 332.385 83.1641 333.702C84.0637 335.018 84.5277 336.543 84.5561 338.276H78.6612ZM88.9773 367.182V337.182H94.9432V340.847H95.2131C95.4782 340.259 95.8617 339.663 96.3636 339.057C96.875 338.441 97.5379 337.93 98.3523 337.523C99.1761 337.106 100.199 336.898 101.42 336.898C103.011 336.898 104.479 337.314 105.824 338.148C107.169 338.972 108.243 340.217 109.048 341.884C109.853 343.541 110.256 345.619 110.256 348.119C110.256 350.553 109.863 352.608 109.077 354.284C108.3 355.951 107.24 357.215 105.895 358.077C104.56 358.929 103.063 359.355 101.406 359.355C100.232 359.355 99.233 359.161 98.4091 358.773C97.5947 358.384 96.9271 357.897 96.4062 357.31C95.8854 356.713 95.4877 356.112 95.2131 355.506H95.0284V367.182H88.9773ZM94.9006 348.091C94.9006 349.388 95.0805 350.52 95.4403 351.486C95.8002 352.452 96.321 353.205 97.0028 353.744C97.6847 354.275 98.5133 354.54 99.4886 354.54C100.473 354.54 101.307 354.27 101.989 353.73C102.67 353.181 103.187 352.423 103.537 351.457C103.897 350.482 104.077 349.36 104.077 348.091C104.077 346.831 103.902 345.723 103.551 344.767C103.201 343.811 102.685 343.062 102.003 342.523C101.321 341.983 100.483 341.713 99.4886 341.713C98.5038 341.713 97.6705 341.973 96.9886 342.494C96.3163 343.015 95.8002 343.754 95.4403 344.71C95.0805 345.667 94.9006 346.794 94.9006 348.091ZM114.29 359V337.182H120.156V340.989H120.384C120.781 339.634 121.449 338.612 122.386 337.92C123.324 337.22 124.403 336.869 125.625 336.869C125.928 336.869 126.255 336.888 126.605 336.926C126.955 336.964 127.263 337.016 127.528 337.082V342.452C127.244 342.366 126.851 342.291 126.349 342.224C125.848 342.158 125.388 342.125 124.972 342.125C124.081 342.125 123.286 342.319 122.585 342.707C121.894 343.086 121.345 343.616 120.938 344.298C120.54 344.98 120.341 345.766 120.341 346.656V359H114.29ZM130.657 359V337.182H136.708V359H130.657ZM133.697 334.369C132.797 334.369 132.025 334.071 131.381 333.474C130.747 332.868 130.43 332.144 130.43 331.301C130.43 330.468 130.747 329.753 131.381 329.156C132.025 328.55 132.797 328.247 133.697 328.247C134.596 328.247 135.363 328.55 135.998 329.156C136.642 329.753 136.964 330.468 136.964 331.301C136.964 332.144 136.642 332.868 135.998 333.474C135.363 334.071 134.596 334.369 133.697 334.369ZM147.607 346.386V359H141.555V337.182H147.322V341.031H147.578C148.061 339.762 148.871 338.759 150.007 338.02C151.143 337.272 152.521 336.898 154.141 336.898C155.656 336.898 156.977 337.229 158.104 337.892C159.231 338.555 160.107 339.502 160.732 340.733C161.357 341.955 161.669 343.413 161.669 345.108V359H155.618V346.188C155.627 344.852 155.286 343.811 154.595 343.062C153.904 342.305 152.952 341.926 151.74 341.926C150.926 341.926 150.206 342.101 149.581 342.452C148.965 342.802 148.482 343.313 148.132 343.986C147.791 344.649 147.616 345.449 147.607 346.386ZM176.268 367.636C174.308 367.636 172.627 367.366 171.225 366.827C169.833 366.296 168.725 365.572 167.901 364.653C167.077 363.735 166.542 362.703 166.296 361.557L171.893 360.804C172.063 361.24 172.333 361.647 172.702 362.026C173.072 362.404 173.559 362.707 174.165 362.935C174.781 363.171 175.529 363.29 176.41 363.29C177.726 363.29 178.81 362.968 179.663 362.324C180.524 361.689 180.955 360.624 180.955 359.128V355.136H180.7C180.434 355.742 180.037 356.315 179.506 356.855C178.976 357.395 178.294 357.835 177.461 358.176C176.628 358.517 175.633 358.688 174.478 358.688C172.84 358.688 171.348 358.309 170.004 357.551C168.668 356.784 167.603 355.615 166.808 354.043C166.022 352.461 165.629 350.463 165.629 348.048C165.629 345.577 166.031 343.512 166.836 341.855C167.641 340.198 168.711 338.957 170.046 338.134C171.391 337.31 172.863 336.898 174.464 336.898C175.685 336.898 176.708 337.106 177.532 337.523C178.356 337.93 179.019 338.441 179.521 339.057C180.032 339.663 180.425 340.259 180.7 340.847H180.927V337.182H186.935V359.213C186.935 361.069 186.481 362.622 185.572 363.872C184.663 365.122 183.403 366.06 181.793 366.685C180.193 367.319 178.351 367.636 176.268 367.636ZM176.396 354.142C177.371 354.142 178.195 353.901 178.867 353.418C179.549 352.925 180.07 352.224 180.43 351.315C180.799 350.397 180.984 349.298 180.984 348.02C180.984 346.741 180.804 345.634 180.444 344.696C180.084 343.749 179.563 343.015 178.881 342.494C178.2 341.973 177.371 341.713 176.396 341.713C175.401 341.713 174.563 341.983 173.881 342.523C173.2 343.053 172.683 343.792 172.333 344.739C171.983 345.686 171.808 346.779 171.808 348.02C171.808 349.279 171.983 350.368 172.333 351.287C172.693 352.196 173.209 352.902 173.881 353.403C174.563 353.896 175.401 354.142 176.396 354.142ZM201.122 359V329.909H212.77C214.91 329.909 216.695 330.226 218.125 330.861C219.555 331.495 220.63 332.376 221.349 333.503C222.069 334.62 222.429 335.908 222.429 337.366C222.429 338.503 222.202 339.502 221.747 340.364C221.293 341.216 220.668 341.917 219.872 342.466C219.086 343.006 218.187 343.389 217.173 343.616V343.901C218.281 343.948 219.318 344.26 220.284 344.838C221.259 345.416 222.05 346.225 222.656 347.267C223.262 348.299 223.565 349.53 223.565 350.96C223.565 352.504 223.182 353.882 222.415 355.094C221.657 356.296 220.535 357.248 219.048 357.949C217.562 358.65 215.729 359 213.551 359H201.122ZM207.273 353.972H212.287C214.001 353.972 215.251 353.645 216.037 352.991C216.823 352.329 217.216 351.448 217.216 350.349C217.216 349.545 217.022 348.834 216.634 348.219C216.245 347.603 215.691 347.12 214.972 346.77C214.261 346.42 213.414 346.244 212.429 346.244H207.273V353.972ZM207.273 342.082H211.832C212.675 342.082 213.423 341.936 214.077 341.642C214.74 341.339 215.26 340.913 215.639 340.364C216.027 339.814 216.222 339.156 216.222 338.389C216.222 337.338 215.848 336.491 215.099 335.847C214.361 335.203 213.31 334.881 211.946 334.881H207.273V342.082ZM237.312 359.426C235.105 359.426 233.197 358.957 231.587 358.02C229.987 357.073 228.751 355.757 227.88 354.071C227.009 352.376 226.573 350.411 226.573 348.176C226.573 345.922 227.009 343.953 227.88 342.267C228.751 340.572 229.987 339.256 231.587 338.318C233.197 337.371 235.105 336.898 237.312 336.898C239.518 336.898 241.422 337.371 243.022 338.318C244.632 339.256 245.872 340.572 246.744 342.267C247.615 343.953 248.05 345.922 248.05 348.176C248.05 350.411 247.615 352.376 246.744 354.071C245.872 355.757 244.632 357.073 243.022 358.02C241.422 358.957 239.518 359.426 237.312 359.426ZM237.34 354.739C238.344 354.739 239.182 354.455 239.854 353.886C240.527 353.309 241.033 352.523 241.374 351.528C241.725 350.534 241.9 349.402 241.9 348.134C241.9 346.865 241.725 345.733 241.374 344.739C241.033 343.744 240.527 342.958 239.854 342.381C239.182 341.803 238.344 341.514 237.34 341.514C236.327 341.514 235.475 341.803 234.783 342.381C234.102 342.958 233.585 343.744 233.235 344.739C232.894 345.733 232.724 346.865 232.724 348.134C232.724 349.402 232.894 350.534 233.235 351.528C233.585 352.523 234.102 353.309 234.783 353.886C235.475 354.455 236.327 354.739 237.34 354.739ZM261.843 359.426C259.637 359.426 257.728 358.957 256.119 358.02C254.518 357.073 253.282 355.757 252.411 354.071C251.54 352.376 251.104 350.411 251.104 348.176C251.104 345.922 251.54 343.953 252.411 342.267C253.282 340.572 254.518 339.256 256.119 338.318C257.728 337.371 259.637 336.898 261.843 336.898C264.049 336.898 265.953 337.371 267.553 338.318C269.163 339.256 270.404 340.572 271.275 342.267C272.146 343.953 272.582 345.922 272.582 348.176C272.582 350.411 272.146 352.376 271.275 354.071C270.404 355.757 269.163 357.073 267.553 358.02C265.953 358.957 264.049 359.426 261.843 359.426ZM261.871 354.739C262.875 354.739 263.713 354.455 264.386 353.886C265.058 353.309 265.565 352.523 265.906 351.528C266.256 350.534 266.431 349.402 266.431 348.134C266.431 346.865 266.256 345.733 265.906 344.739C265.565 343.744 265.058 342.958 264.386 342.381C263.713 341.803 262.875 341.514 261.871 341.514C260.858 341.514 260.006 341.803 259.315 342.381C258.633 342.958 258.117 343.744 257.766 344.739C257.425 345.733 257.255 346.865 257.255 348.134C257.255 349.402 257.425 350.534 257.766 351.528C258.117 352.523 258.633 353.309 259.315 353.886C260.006 354.455 260.858 354.739 261.871 354.739ZM288.121 337.182V341.727H274.982V337.182H288.121ZM277.965 331.955H284.016V352.295C284.016 352.854 284.102 353.29 284.272 353.602C284.442 353.905 284.679 354.118 284.982 354.241C285.295 354.365 285.655 354.426 286.062 354.426C286.346 354.426 286.63 354.402 286.914 354.355C287.198 354.298 287.416 354.256 287.567 354.227L288.519 358.73C288.216 358.825 287.79 358.934 287.241 359.057C286.692 359.189 286.024 359.27 285.238 359.298C283.78 359.355 282.501 359.161 281.403 358.716C280.314 358.271 279.466 357.58 278.86 356.642C278.254 355.705 277.956 354.521 277.965 353.091V331.955Z" fill="#8BC34A"/>
<g clip-path="url(#clip0_204_8)">
<path d="M298.896 173.34C299.324 147.045 293.372 115.777 280.971 79.0901L271.249 50.3209L258.042 77.677C257.335 79.1395 256.529 80.5712 255.686 81.9844C233.991 63.4466 205.841 52.1722 175 52.1722C106.51 52.1722 50.9921 107.427 50.9921 175.592C50.9921 243.757 106.51 299.013 175 299.013C243.49 299.013 299.008 243.757 299.008 175.592C299.008 174.833 298.909 174.099 298.896 173.34Z" fill="#8BC34A"/>
<path d="M270.393 228.404C251.029 254.952 216.753 256.377 184.493 255.816H142.448H130.432C157.887 245.985 174.225 243.646 190.91 234.834C222.334 218.388 253.398 182.405 259.865 144.972C247.898 180.986 211.632 211.927 178.584 224.51C155.94 233.106 115.042 241.449 115.042 241.449L113.387 240.555C85.5469 226.614 84.7036 164.571 135.317 144.54C157.478 135.759 178.677 140.584 202.617 134.709C228.175 128.464 257.738 108.742 269.767 83.0273C283.234 124.169 299.442 188.589 270.393 228.404ZM123.338 264.733C121.59 266.893 118.917 268.158 116.127 268.158C111.024 268.158 106.858 263.98 106.858 258.901C106.858 253.822 111.055 249.645 116.127 249.645C118.242 249.645 120.325 250.373 121.962 251.718C125.93 254.921 126.55 260.783 123.338 264.733Z" fill="white"/>
</g>
<path d="M458.958 359H448.646V329.909H459.043C461.969 329.909 464.488 330.491 466.6 331.656C468.712 332.812 470.336 334.473 471.472 336.642C472.618 338.811 473.191 341.405 473.191 344.426C473.191 347.456 472.618 350.061 471.472 352.239C470.336 354.417 468.702 356.088 466.572 357.253C464.451 358.418 461.913 359 458.958 359ZM454.796 353.73H458.702C460.521 353.73 462.05 353.408 463.29 352.764C464.54 352.111 465.478 351.102 466.103 349.739C466.737 348.366 467.055 346.595 467.055 344.426C467.055 342.277 466.737 340.52 466.103 339.156C465.478 337.793 464.545 336.789 463.305 336.145C462.064 335.501 460.535 335.179 458.717 335.179H454.796V353.73ZM487.491 359.426C485.285 359.426 483.377 358.957 481.767 358.02C480.167 357.073 478.931 355.757 478.06 354.071C477.188 352.376 476.753 350.411 476.753 348.176C476.753 345.922 477.188 343.953 478.06 342.267C478.931 340.572 480.167 339.256 481.767 338.318C483.377 337.371 485.285 336.898 487.491 336.898C489.698 336.898 491.601 337.371 493.202 338.318C494.812 339.256 496.052 340.572 496.923 342.267C497.795 343.953 498.23 345.922 498.23 348.176C498.23 350.411 497.795 352.376 496.923 354.071C496.052 355.757 494.812 357.073 493.202 358.02C491.601 358.957 489.698 359.426 487.491 359.426ZM487.52 354.739C488.524 354.739 489.362 354.455 490.034 353.886C490.706 353.309 491.213 352.523 491.554 351.528C491.904 350.534 492.08 349.402 492.08 348.134C492.08 346.865 491.904 345.733 491.554 344.739C491.213 343.744 490.706 342.958 490.034 342.381C489.362 341.803 488.524 341.514 487.52 341.514C486.507 341.514 485.654 341.803 484.963 342.381C484.281 342.958 483.765 343.744 483.415 344.739C483.074 345.733 482.903 346.865 482.903 348.134C482.903 349.402 483.074 350.534 483.415 351.528C483.765 352.523 484.281 353.309 484.963 353.886C485.654 354.455 486.507 354.739 487.52 354.739ZM512.023 359.426C509.788 359.426 507.866 358.953 506.256 358.006C504.655 357.049 503.424 355.723 502.562 354.028C501.71 352.333 501.284 350.383 501.284 348.176C501.284 345.941 501.715 343.981 502.577 342.295C503.448 340.6 504.684 339.279 506.284 338.332C507.884 337.376 509.788 336.898 511.994 336.898C513.898 336.898 515.564 337.243 516.994 337.935C518.424 338.626 519.556 339.597 520.389 340.847C521.223 342.097 521.682 343.564 521.767 345.25H516.057C515.896 344.161 515.47 343.285 514.778 342.622C514.097 341.95 513.202 341.614 512.094 341.614C511.156 341.614 510.337 341.869 509.636 342.381C508.945 342.883 508.405 343.616 508.017 344.582C507.629 345.548 507.435 346.718 507.435 348.091C507.435 349.483 507.624 350.667 508.003 351.642C508.391 352.617 508.936 353.361 509.636 353.872C510.337 354.384 511.156 354.639 512.094 354.639C512.785 354.639 513.405 354.497 513.955 354.213C514.513 353.929 514.973 353.517 515.332 352.977C515.702 352.428 515.943 351.77 516.057 351.003H521.767C521.672 352.67 521.218 354.137 520.403 355.406C519.598 356.666 518.486 357.651 517.065 358.361C515.645 359.071 513.964 359.426 512.023 359.426ZM531.124 352.722L531.138 345.463H532.019L539.008 337.182H545.954L536.565 348.148H535.13L531.124 352.722ZM525.641 359V329.909H531.692V359H525.641ZM539.278 359L532.857 349.497L536.891 345.222L546.366 359H539.278ZM557.967 359.426C555.723 359.426 553.791 358.972 552.172 358.062C550.562 357.144 549.321 355.847 548.45 354.17C547.579 352.485 547.143 350.491 547.143 348.19C547.143 345.946 547.579 343.976 548.45 342.281C549.321 340.586 550.548 339.265 552.129 338.318C553.72 337.371 555.586 336.898 557.726 336.898C559.165 336.898 560.505 337.13 561.746 337.594C562.996 338.048 564.085 338.735 565.013 339.653C565.95 340.572 566.679 341.727 567.2 343.119C567.721 344.502 567.982 346.121 567.982 347.977V349.639H549.558V345.889H562.286C562.286 345.018 562.096 344.246 561.717 343.574C561.339 342.902 560.813 342.376 560.141 341.997C559.478 341.609 558.706 341.415 557.825 341.415C556.907 341.415 556.092 341.628 555.382 342.054C554.681 342.471 554.132 343.034 553.734 343.744C553.337 344.445 553.133 345.226 553.124 346.088V349.653C553.124 350.733 553.322 351.666 553.72 352.452C554.127 353.238 554.7 353.844 555.439 354.27C556.178 354.696 557.054 354.909 558.067 354.909C558.739 354.909 559.355 354.814 559.913 354.625C560.472 354.436 560.95 354.152 561.348 353.773C561.746 353.394 562.049 352.93 562.257 352.381L567.854 352.75C567.57 354.095 566.987 355.269 566.107 356.273C565.235 357.267 564.108 358.044 562.726 358.602C561.353 359.152 559.767 359.426 557.967 359.426ZM571.93 359V337.182H577.797V340.989H578.024C578.422 339.634 579.089 338.612 580.027 337.92C580.964 337.22 582.044 336.869 583.266 336.869C583.569 336.869 583.895 336.888 584.246 336.926C584.596 336.964 584.904 337.016 585.169 337.082V342.452C584.885 342.366 584.492 342.291 583.99 342.224C583.488 342.158 583.029 342.125 582.612 342.125C581.722 342.125 580.927 342.319 580.226 342.707C579.535 343.086 578.985 343.616 578.578 344.298C578.18 344.98 577.982 345.766 577.982 346.656V359H571.93Z" fill="#03A9F4"/>
<path d="M654.14 139.172C657.253 125.358 653.408 109.076 634.236 91.4013C603.073 119.61 611.983 148.941 622.293 163.057C622.293 163.057 620.971 171.019 590.446 171.019C559.92 171.019 351.592 171.019 351.592 171.019C351.592 171.019 336.998 298.408 478.981 298.408C603.129 298.408 638.002 202.842 644.809 178.376C647.627 178.758 650.788 179.005 654.14 178.981C671.234 178.846 693.392 169.658 701.911 135.318C679.315 127.492 664.801 131.035 654.14 139.172Z" fill="#03A9F4"/>
<path d="M352.906 202.866C358.758 240.597 383.304 298.408 478.981 298.408C575.995 298.408 618.495 240.048 635.685 202.866H352.906Z" fill="#0288D1"/>
<path d="M493.408 297.914C486.083 295.35 453.025 289.236 447.134 242.675C413.623 257.508 383.933 253.623 370.868 250.701C388.081 276.409 419.992 298.408 478.981 298.408C483.941 298.408 488.726 298.217 493.408 297.914Z" fill="#81D4FA"/>
<path d="M478.981 218.79C474.758 218.79 470.707 220.467 467.721 223.454C464.735 226.44 463.057 230.49 463.057 234.713C463.057 238.937 464.735 242.987 467.721 245.973C470.707 248.959 474.758 250.637 478.981 250.637C483.204 250.637 487.254 248.959 490.241 245.973C493.227 242.987 494.904 238.937 494.904 234.713C494.904 230.49 493.227 226.44 490.241 223.454C487.254 220.467 483.204 218.79 478.981 218.79Z" fill="white"/>
<path d="M454.411 247.428C456.194 251.449 454.57 256.68 450.35 257.922C424.068 265.669 401.417 266.696 384.291 266.696C379.164 261.768 374.785 256.513 371.107 251.067C391.688 251.067 424.53 250.111 443.909 243.376C448.065 241.927 452.627 243.392 454.411 247.428ZM351.592 194.904C351.592 194.904 366.521 195.9 375.478 186.943C390.406 200.382 422.771 195.605 431.21 186.943C439.674 200.382 486.449 197.89 494.904 186.943C504.857 198.392 547.651 200.876 558.599 186.943C562.412 198.575 612.89 201.863 622.293 186.943C630.74 195.605 662.603 202.373 680.502 186.943C684.992 196.401 701.911 194.904 701.911 194.904V202.866H351.592M471.019 234.713C471.019 239.108 474.586 242.675 478.981 242.675C483.376 242.675 486.943 239.108 486.943 234.713C486.943 230.318 483.376 226.752 478.981 226.752C474.586 226.752 471.019 230.318 471.019 234.713Z" fill="#37474F"/>
<path d="M423.248 171.019H383.439V131.21H423.248V171.019ZM502.866 131.21H463.057V171.019H502.866V131.21ZM582.484 131.21H542.675V171.019H582.484V131.21ZM463.057 91.4013H423.248V131.21H463.057V91.4013ZM542.675 91.4013H502.866V131.21H542.675V91.4013Z" fill="#01579B"/>
<path d="M463.057 171.019H423.248V131.21H463.057V171.019ZM542.675 131.21H502.866V171.019H542.675V131.21ZM542.675 51.5923H502.866V91.4013H542.675V51.5923ZM502.866 91.4013H463.057V131.21H502.866V91.4013Z" fill="#0288D1"/>
<path d="M769.518 334.98V329.909H793.41V334.98H784.504V359H778.424V334.98H769.518ZM804.01 359.426C801.766 359.426 799.834 358.972 798.215 358.062C796.605 357.144 795.364 355.847 794.493 354.17C793.622 352.485 793.186 350.491 793.186 348.19C793.186 345.946 793.622 343.976 794.493 342.281C795.364 340.586 796.591 339.265 798.172 338.318C799.763 337.371 801.629 336.898 803.769 336.898C805.208 336.898 806.548 337.13 807.789 337.594C809.039 338.048 810.128 338.735 811.056 339.653C811.993 340.572 812.722 341.727 813.243 343.119C813.764 344.502 814.025 346.121 814.025 347.977V349.639H795.601V345.889H808.328C808.328 345.018 808.139 344.246 807.76 343.574C807.382 342.902 806.856 342.376 806.184 341.997C805.521 341.609 804.749 341.415 803.868 341.415C802.95 341.415 802.135 341.628 801.425 342.054C800.724 342.471 800.175 343.034 799.777 343.744C799.38 344.445 799.176 345.226 799.167 346.088V349.653C799.167 350.733 799.365 351.666 799.763 352.452C800.17 353.238 800.743 353.844 801.482 354.27C802.221 354.696 803.096 354.909 804.11 354.909C804.782 354.909 805.398 354.814 805.956 354.625C806.515 354.436 806.993 354.152 807.391 353.773C807.789 353.394 808.092 352.93 808.3 352.381L813.897 352.75C813.613 354.095 813.03 355.269 812.15 356.273C811.278 357.267 810.151 358.044 808.769 358.602C807.396 359.152 805.81 359.426 804.01 359.426ZM817.973 359V337.182H823.84V340.989H824.067C824.465 339.634 825.132 338.612 826.07 337.92C827.007 337.22 828.087 336.869 829.309 336.869C829.612 336.869 829.938 336.888 830.289 336.926C830.639 336.964 830.947 337.016 831.212 337.082V342.452C830.928 342.366 830.535 342.291 830.033 342.224C829.531 342.158 829.072 342.125 828.655 342.125C827.765 342.125 826.97 342.319 826.269 342.707C825.578 343.086 825.028 343.616 824.621 344.298C824.223 344.98 824.025 345.766 824.025 346.656V359H817.973ZM834.341 359V337.182H840.207V340.989H840.434C840.832 339.634 841.5 338.612 842.437 337.92C843.375 337.22 844.454 336.869 845.676 336.869C845.979 336.869 846.306 336.888 846.656 336.926C847.006 336.964 847.314 337.016 847.579 337.082V342.452C847.295 342.366 846.902 342.291 846.4 342.224C845.898 342.158 845.439 342.125 845.022 342.125C844.132 342.125 843.337 342.319 842.636 342.707C841.945 343.086 841.395 343.616 840.988 344.298C840.591 344.98 840.392 345.766 840.392 346.656V359H834.341ZM856.304 359.412C854.912 359.412 853.672 359.17 852.583 358.688C851.494 358.195 850.632 357.471 849.998 356.514C849.373 355.548 849.06 354.346 849.06 352.906C849.06 351.694 849.283 350.676 849.728 349.852C850.173 349.028 850.779 348.366 851.546 347.864C852.313 347.362 853.184 346.983 854.159 346.727C855.144 346.472 856.176 346.292 857.256 346.188C858.525 346.055 859.548 345.932 860.324 345.818C861.101 345.695 861.664 345.515 862.015 345.278C862.365 345.042 862.54 344.691 862.54 344.227V344.142C862.54 343.242 862.256 342.546 861.688 342.054C861.129 341.562 860.334 341.315 859.301 341.315C858.212 341.315 857.346 341.557 856.702 342.04C856.058 342.513 855.632 343.11 855.424 343.83L849.827 343.375C850.111 342.049 850.67 340.903 851.503 339.938C852.337 338.962 853.411 338.214 854.728 337.693C856.053 337.163 857.587 336.898 859.33 336.898C860.542 336.898 861.702 337.04 862.81 337.324C863.927 337.608 864.917 338.048 865.779 338.645C866.65 339.241 867.337 340.009 867.838 340.946C868.34 341.874 868.591 342.987 868.591 344.284V359H862.853V355.974H862.682C862.332 356.656 861.863 357.258 861.276 357.778C860.689 358.29 859.983 358.692 859.159 358.986C858.336 359.27 857.384 359.412 856.304 359.412ZM858.037 355.236C858.927 355.236 859.713 355.061 860.395 354.71C861.077 354.35 861.612 353.867 862 353.261C862.389 352.655 862.583 351.969 862.583 351.202V348.886C862.393 349.009 862.133 349.123 861.801 349.227C861.48 349.322 861.115 349.412 860.708 349.497C860.301 349.573 859.893 349.644 859.486 349.71C859.079 349.767 858.71 349.819 858.378 349.866C857.668 349.971 857.048 350.136 856.517 350.364C855.987 350.591 855.575 350.899 855.282 351.287C854.988 351.666 854.841 352.139 854.841 352.707C854.841 353.531 855.14 354.161 855.736 354.597C856.342 355.023 857.109 355.236 858.037 355.236ZM885.019 337.182V341.727H871.553V337.182H885.019ZM874.635 359V335.605C874.635 334.024 874.943 332.712 875.559 331.67C876.184 330.629 877.036 329.848 878.115 329.327C879.195 328.806 880.421 328.545 881.794 328.545C882.722 328.545 883.57 328.616 884.337 328.759C885.114 328.901 885.691 329.028 886.07 329.142L884.99 333.688C884.754 333.612 884.46 333.541 884.11 333.474C883.769 333.408 883.418 333.375 883.059 333.375C882.168 333.375 881.548 333.583 881.198 334C880.847 334.407 880.672 334.98 880.672 335.719V359H874.635ZM897.792 359.426C895.586 359.426 893.678 358.957 892.068 358.02C890.467 357.073 889.232 355.757 888.36 354.071C887.489 352.376 887.054 350.411 887.054 348.176C887.054 345.922 887.489 343.953 888.36 342.267C889.232 340.572 890.467 339.256 892.068 338.318C893.678 337.371 895.586 336.898 897.792 336.898C899.999 336.898 901.902 337.371 903.502 338.318C905.112 339.256 906.353 340.572 907.224 342.267C908.095 343.953 908.531 345.922 908.531 348.176C908.531 350.411 908.095 352.376 907.224 354.071C906.353 355.757 905.112 357.073 903.502 358.02C901.902 358.957 899.999 359.426 897.792 359.426ZM897.821 354.739C898.824 354.739 899.663 354.455 900.335 353.886C901.007 353.309 901.514 352.523 901.855 351.528C902.205 350.534 902.38 349.402 902.38 348.134C902.38 346.865 902.205 345.733 901.855 344.739C901.514 343.744 901.007 342.958 900.335 342.381C899.663 341.803 898.824 341.514 897.821 341.514C896.807 341.514 895.955 341.803 895.264 342.381C894.582 342.958 894.066 343.744 893.716 344.739C893.375 345.733 893.204 346.865 893.204 348.134C893.204 349.402 893.375 350.534 893.716 351.528C894.066 352.523 894.582 353.309 895.264 353.886C895.955 354.455 896.807 354.739 897.821 354.739ZM912.466 359V337.182H918.332V340.989H918.559C918.957 339.634 919.625 338.612 920.562 337.92C921.5 337.22 922.579 336.869 923.801 336.869C924.104 336.869 924.431 336.888 924.781 336.926C925.131 336.964 925.439 337.016 925.704 337.082V342.452C925.42 342.366 925.027 342.291 924.525 342.224C924.023 342.158 923.564 342.125 923.147 342.125C922.257 342.125 921.462 342.319 920.761 342.707C920.07 343.086 919.52 343.616 919.113 344.298C918.716 344.98 918.517 345.766 918.517 346.656V359H912.466ZM928.833 359V337.182H934.6V341.031H934.855C935.31 339.753 936.068 338.744 937.128 338.006C938.189 337.267 939.458 336.898 940.935 336.898C942.431 336.898 943.705 337.272 944.756 338.02C945.807 338.759 946.508 339.762 946.858 341.031H947.086C947.531 339.781 948.336 338.782 949.5 338.034C950.675 337.277 952.062 336.898 953.662 336.898C955.698 336.898 957.351 337.546 958.62 338.844C959.898 340.132 960.537 341.959 960.537 344.327V359H954.5V345.52C954.5 344.308 954.178 343.399 953.534 342.793C952.891 342.187 952.086 341.884 951.12 341.884C950.021 341.884 949.164 342.234 948.549 342.935C947.933 343.626 947.625 344.54 947.625 345.676V359H941.759V345.392C941.759 344.322 941.451 343.47 940.836 342.835C940.23 342.201 939.429 341.884 938.435 341.884C937.763 341.884 937.157 342.054 936.617 342.395C936.087 342.726 935.665 343.195 935.353 343.801C935.04 344.398 934.884 345.098 934.884 345.903V359H928.833Z" fill="#6042EA"/>
<g clip-path="url(#clip1_204_8)">
<path d="M820.667 166.667L754 127.778V50L820.667 88.8889V166.667Z" fill="#6042EA"/>
<path d="M898.444 211.111L831.778 172.222V94.4445L898.444 133.333V211.111Z" fill="#6042EA"/>
<path d="M909.556 211.111L976.222 172.222V94.4445L909.556 133.333V211.111Z" fill="#4040B2"/>
<path d="M898.444 300L831.778 261.111V183.333L898.444 222.222V300Z" fill="#6042EA"/>
</g>
<path d="M1041.9 359V329.909H1048.05V342.736H1048.43L1058.9 329.909H1066.27L1055.48 342.935L1066.4 359H1059.04L1051.07 347.04L1048.05 350.733V359H1041.9ZM1081.98 349.71V337.182H1088.04V359H1082.23V355.037H1082C1081.51 356.315 1080.69 357.343 1079.54 358.119C1078.4 358.896 1077.02 359.284 1075.38 359.284C1073.92 359.284 1072.64 358.953 1071.53 358.29C1070.42 357.627 1069.56 356.685 1068.93 355.463C1068.31 354.241 1068 352.778 1067.99 351.074V337.182H1074.04V349.994C1074.05 351.282 1074.4 352.3 1075.08 353.048C1075.76 353.796 1076.68 354.17 1077.82 354.17C1078.55 354.17 1079.23 354.005 1079.87 353.673C1080.5 353.332 1081.01 352.83 1081.4 352.168C1081.8 351.505 1081.99 350.686 1081.98 349.71ZM1092.99 359V329.909H1099.04V340.847H1099.23C1099.49 340.259 1099.87 339.663 1100.38 339.057C1100.89 338.441 1101.55 337.93 1102.36 337.523C1103.19 337.106 1104.21 336.898 1105.43 336.898C1107.02 336.898 1108.49 337.314 1109.84 338.148C1111.18 338.972 1112.26 340.217 1113.06 341.884C1113.87 343.541 1114.27 345.619 1114.27 348.119C1114.27 350.553 1113.87 352.608 1113.09 354.284C1112.31 355.951 1111.25 357.215 1109.91 358.077C1108.57 358.929 1107.08 359.355 1105.42 359.355C1104.24 359.355 1103.25 359.161 1102.42 358.773C1101.61 358.384 1100.94 357.897 1100.42 357.31C1099.9 356.713 1099.5 356.112 1099.23 355.506H1098.96V359H1092.99ZM1098.91 348.091C1098.91 349.388 1099.09 350.52 1099.45 351.486C1099.81 352.452 1100.33 353.205 1101.01 353.744C1101.7 354.275 1102.53 354.54 1103.5 354.54C1104.49 354.54 1105.32 354.27 1106 353.73C1106.68 353.181 1107.2 352.423 1107.55 351.457C1107.91 350.482 1108.09 349.36 1108.09 348.091C1108.09 346.831 1107.91 345.723 1107.56 344.767C1107.21 343.811 1106.7 343.062 1106.01 342.523C1105.33 341.983 1104.5 341.713 1103.5 341.713C1102.52 341.713 1101.68 341.973 1101 342.494C1100.33 343.015 1099.81 343.754 1099.45 344.71C1099.09 345.667 1098.91 346.794 1098.91 348.091ZM1128.25 359.426C1126 359.426 1124.07 358.972 1122.45 358.062C1120.84 357.144 1119.6 355.847 1118.73 354.17C1117.86 352.485 1117.42 350.491 1117.42 348.19C1117.42 345.946 1117.86 343.976 1118.73 342.281C1119.6 340.586 1120.83 339.265 1122.41 338.318C1124 337.371 1125.87 336.898 1128.01 336.898C1129.45 336.898 1130.79 337.13 1132.03 337.594C1133.28 338.048 1134.37 338.735 1135.29 339.653C1136.23 340.572 1136.96 341.727 1137.48 343.119C1138 344.502 1138.26 346.121 1138.26 347.977V349.639H1119.84V345.889H1132.57C1132.57 345.018 1132.38 344.246 1132 343.574C1131.62 342.902 1131.09 342.376 1130.42 341.997C1129.76 341.609 1128.99 341.415 1128.11 341.415C1127.19 341.415 1126.37 341.628 1125.66 342.054C1124.96 342.471 1124.41 343.034 1124.02 343.744C1123.62 344.445 1123.41 345.226 1123.4 346.088V349.653C1123.4 350.733 1123.6 351.666 1124 352.452C1124.41 353.238 1124.98 353.844 1125.72 354.27C1126.46 354.696 1127.33 354.909 1128.35 354.909C1129.02 354.909 1129.64 354.814 1130.19 354.625C1130.75 354.436 1131.23 354.152 1131.63 353.773C1132.03 353.394 1132.33 352.93 1132.54 352.381L1138.13 352.75C1137.85 354.095 1137.27 355.269 1136.39 356.273C1135.52 357.267 1134.39 358.044 1133.01 358.602C1131.63 359.152 1130.05 359.426 1128.25 359.426ZM1142.21 359V337.182H1148.08V340.989H1148.31C1148.7 339.634 1149.37 338.612 1150.31 337.92C1151.25 337.22 1152.33 336.869 1153.55 336.869C1153.85 336.869 1154.18 336.888 1154.53 336.926C1154.88 336.964 1155.19 337.016 1155.45 337.082V342.452C1155.17 342.366 1154.77 342.291 1154.27 342.224C1153.77 342.158 1153.31 342.125 1152.89 342.125C1152 342.125 1151.21 342.319 1150.51 342.707C1149.82 343.086 1149.27 343.616 1148.86 344.298C1148.46 344.98 1148.26 345.766 1148.26 346.656V359H1142.21ZM1164.63 346.386V359H1158.58V337.182H1164.35V341.031H1164.6C1165.08 339.762 1165.89 338.759 1167.03 338.02C1168.17 337.272 1169.54 336.898 1171.16 336.898C1172.68 336.898 1174 337.229 1175.13 337.892C1176.25 338.555 1177.13 339.502 1177.75 340.733C1178.38 341.955 1178.69 343.413 1178.69 345.108V359H1172.64V346.188C1172.65 344.852 1172.31 343.811 1171.62 343.062C1170.93 342.305 1169.98 341.926 1168.76 341.926C1167.95 341.926 1167.23 342.101 1166.6 342.452C1165.99 342.802 1165.51 343.313 1165.16 343.986C1164.81 344.649 1164.64 345.449 1164.63 346.386ZM1193.4 359.426C1191.16 359.426 1189.23 358.972 1187.61 358.062C1186 357.144 1184.76 355.847 1183.89 354.17C1183.02 352.485 1182.58 350.491 1182.58 348.19C1182.58 345.946 1183.02 343.976 1183.89 342.281C1184.76 340.586 1185.99 339.265 1187.57 338.318C1189.16 337.371 1191.02 336.898 1193.16 336.898C1194.6 336.898 1195.94 337.13 1197.18 337.594C1198.43 338.048 1199.52 338.735 1200.45 339.653C1201.39 340.572 1202.12 341.727 1202.64 343.119C1203.16 344.502 1203.42 346.121 1203.42 347.977V349.639H1185V345.889H1197.72C1197.72 345.018 1197.53 344.246 1197.15 343.574C1196.78 342.902 1196.25 342.376 1195.58 341.997C1194.92 341.609 1194.14 341.415 1193.26 341.415C1192.34 341.415 1191.53 341.628 1190.82 342.054C1190.12 342.471 1189.57 343.034 1189.17 343.744C1188.77 344.445 1188.57 345.226 1188.56 346.088V349.653C1188.56 350.733 1188.76 351.666 1189.16 352.452C1189.56 353.238 1190.14 353.844 1190.88 354.27C1191.62 354.696 1192.49 354.909 1193.5 354.909C1194.18 354.909 1194.79 354.814 1195.35 354.625C1195.91 354.436 1196.39 354.152 1196.79 353.773C1197.18 353.394 1197.49 352.93 1197.69 352.381L1203.29 352.75C1203.01 354.095 1202.42 355.269 1201.54 356.273C1200.67 357.267 1199.55 358.044 1198.16 358.602C1196.79 359.152 1195.2 359.426 1193.4 359.426ZM1218.97 337.182V341.727H1205.83V337.182H1218.97ZM1208.82 331.955H1214.87V352.295C1214.87 352.854 1214.95 353.29 1215.12 353.602C1215.29 353.905 1215.53 354.118 1215.83 354.241C1216.15 354.365 1216.51 354.426 1216.91 354.426C1217.2 354.426 1217.48 354.402 1217.77 354.355C1218.05 354.298 1218.27 354.256 1218.42 354.227L1219.37 358.73C1219.07 358.825 1218.64 358.934 1218.09 359.057C1217.54 359.189 1216.88 359.27 1216.09 359.298C1214.63 359.355 1213.35 359.161 1212.25 358.716C1211.17 358.271 1210.32 357.58 1209.71 356.642C1209.11 355.705 1208.81 354.521 1208.82 353.091V331.955ZM1232.62 359.426C1230.38 359.426 1228.45 358.972 1226.83 358.062C1225.22 357.144 1223.98 355.847 1223.11 354.17C1222.24 352.485 1221.8 350.491 1221.8 348.19C1221.8 345.946 1222.24 343.976 1223.11 342.281C1223.98 340.586 1225.2 339.265 1226.79 338.318C1228.38 337.371 1230.24 336.898 1232.38 336.898C1233.82 336.898 1235.16 337.13 1236.4 337.594C1237.65 338.048 1238.74 338.735 1239.67 339.653C1240.61 340.572 1241.34 341.727 1241.86 343.119C1242.38 344.502 1242.64 346.121 1242.64 347.977V349.639H1224.21V345.889H1236.94C1236.94 345.018 1236.75 344.246 1236.37 343.574C1235.99 342.902 1235.47 342.376 1234.8 341.997C1234.13 341.609 1233.36 341.415 1232.48 341.415C1231.56 341.415 1230.75 341.628 1230.04 342.054C1229.34 342.471 1228.79 343.034 1228.39 343.744C1227.99 344.445 1227.79 345.226 1227.78 346.088V349.653C1227.78 350.733 1227.98 351.666 1228.38 352.452C1228.78 353.238 1229.36 353.844 1230.1 354.27C1230.83 354.696 1231.71 354.909 1232.72 354.909C1233.4 354.909 1234.01 354.814 1234.57 354.625C1235.13 354.436 1235.61 354.152 1236 353.773C1236.4 353.394 1236.71 352.93 1236.91 352.381L1242.51 352.75C1242.23 354.095 1241.64 355.269 1240.76 356.273C1239.89 357.267 1238.76 358.044 1237.38 358.602C1236.01 359.152 1234.42 359.426 1232.62 359.426ZM1264.74 343.403L1259.2 343.744C1259.11 343.271 1258.9 342.845 1258.59 342.466C1258.28 342.078 1257.87 341.77 1257.35 341.543C1256.85 341.306 1256.25 341.188 1255.55 341.188C1254.61 341.188 1253.82 341.386 1253.18 341.784C1252.53 342.172 1252.21 342.693 1252.21 343.347C1252.21 343.867 1252.42 344.308 1252.84 344.668C1253.25 345.027 1253.97 345.316 1254.98 345.534L1258.93 346.33C1261.05 346.765 1262.63 347.466 1263.67 348.432C1264.72 349.398 1265.24 350.667 1265.24 352.239C1265.24 353.669 1264.82 354.923 1263.97 356.003C1263.14 357.082 1261.99 357.925 1260.54 358.531C1259.09 359.128 1257.42 359.426 1255.52 359.426C1252.63 359.426 1250.33 358.825 1248.62 357.622C1246.91 356.41 1245.91 354.762 1245.62 352.679L1251.57 352.366C1251.75 353.247 1252.19 353.92 1252.88 354.384C1253.57 354.838 1254.46 355.065 1255.54 355.065C1256.6 355.065 1257.45 354.862 1258.09 354.455C1258.75 354.038 1259.08 353.503 1259.09 352.849C1259.08 352.3 1258.85 351.85 1258.39 351.5C1257.94 351.14 1257.24 350.866 1256.29 350.676L1252.51 349.923C1250.38 349.497 1248.79 348.759 1247.75 347.707C1246.72 346.656 1246.2 345.316 1246.2 343.688C1246.2 342.286 1246.58 341.079 1247.34 340.065C1248.11 339.052 1249.18 338.271 1250.56 337.722C1251.96 337.172 1253.58 336.898 1255.45 336.898C1258.21 336.898 1260.37 337.48 1261.96 338.645C1263.55 339.81 1264.47 341.396 1264.74 343.403Z" fill="#0277BD"/>
<g clip-path="url(#clip2_204_8)">
<path d="M1165.48 179.317C1166.1 180.116 1166.37 181.268 1166.19 182.335L1164.51 189.701C1164.33 190.854 1163.53 191.744 1162.56 192.274L1155.74 195.47C1154.77 196 1153.53 196 1152.55 195.47L1145.74 192.274C1144.76 191.744 1143.97 190.854 1143.79 189.701L1142.11 182.335C1141.93 181.268 1142.2 180.116 1142.82 179.317L1147.6 173.372C1148.21 172.482 1149.28 171.951 1150.43 171.951H1157.87C1159.02 171.951 1160.08 172.482 1160.7 173.372L1165.48 179.317Z" fill="#0277BD"/>
<path d="M1162.05 125.183L1162.34 127.47C1163.16 133.793 1163.74 140.183 1164.33 146.506C1164.56 149.024 1164.8 151.488 1164.97 154.006C1165.09 155.939 1167.25 156.933 1168.83 155.823C1170.82 154.36 1172.87 152.896 1174.97 151.488C1180.23 147.915 1185.43 144.341 1190.81 140.884L1192.8 139.652C1184.44 132.037 1173.8 126.823 1162.05 125.183ZM1162.05 125.183L1162.34 127.47C1163.16 133.793 1163.74 140.183 1164.33 146.506C1164.56 149.024 1164.8 151.488 1164.97 154.006C1165.09 155.939 1167.25 156.933 1168.83 155.823C1170.82 154.36 1172.87 152.896 1174.97 151.488C1180.23 147.915 1185.43 144.341 1190.81 140.884L1192.8 139.652C1184.44 132.037 1173.8 126.823 1162.05 125.183ZM1162.05 125.183L1162.34 127.47C1163.16 133.793 1163.74 140.183 1164.33 146.506C1164.56 149.024 1164.8 151.488 1164.97 154.006C1165.09 155.939 1167.25 156.933 1168.83 155.823C1170.82 154.36 1172.87 152.896 1174.97 151.488C1180.23 147.915 1185.43 144.341 1190.81 140.884L1192.8 139.652C1184.44 132.037 1173.8 126.823 1162.05 125.183ZM1162.05 125.183L1162.34 127.47C1163.16 133.793 1163.74 140.183 1164.33 146.506C1164.56 149.024 1164.8 151.488 1164.97 154.006C1165.09 155.939 1167.25 156.933 1168.83 155.823C1170.82 154.36 1172.87 152.896 1174.97 151.488C1180.23 147.915 1185.43 144.341 1190.81 140.884L1192.8 139.652C1184.44 132.037 1173.8 126.823 1162.05 125.183ZM1162.05 125.183L1162.34 127.47C1163.16 133.793 1163.74 140.183 1164.33 146.506C1164.56 149.024 1164.8 151.488 1164.97 154.006C1165.09 155.939 1167.25 156.933 1168.83 155.823C1170.82 154.36 1172.87 152.896 1174.97 151.488C1180.23 147.915 1185.43 144.341 1190.81 140.884L1192.8 139.652C1184.44 132.037 1173.8 126.823 1162.05 125.183ZM1203.55 152.652L1201.98 154.354C1197.59 159.043 1193.09 163.549 1188.59 168.061C1185.72 170.988 1182.62 173.799 1179.64 176.671C1183.62 177.665 1187.59 178.72 1191.57 179.89C1197.71 181.646 1203.79 183.348 1209.87 185.335L1212.03 186.037C1212.09 185.098 1212.09 184.104 1212.09 183.11C1212.09 171.927 1208.99 161.5 1203.55 152.652ZM1203.55 152.652L1201.98 154.354C1197.59 159.043 1193.09 163.549 1188.59 168.061C1185.72 170.988 1182.62 173.799 1179.64 176.671C1183.62 177.665 1187.59 178.72 1191.57 179.89C1197.71 181.646 1203.79 183.348 1209.87 185.335L1212.03 186.037C1212.09 185.098 1212.09 184.104 1212.09 183.11C1212.09 171.927 1208.99 161.5 1203.55 152.652ZM1162.05 125.183L1162.34 127.47C1163.16 133.793 1163.74 140.183 1164.33 146.506C1164.56 149.024 1164.8 151.488 1164.97 154.006C1165.09 155.939 1167.25 156.933 1168.83 155.823C1170.82 154.36 1172.87 152.896 1174.97 151.488C1180.23 147.915 1185.43 144.341 1190.81 140.884L1192.8 139.652C1184.44 132.037 1173.8 126.823 1162.05 125.183ZM1162.05 125.183L1162.34 127.47C1163.16 133.793 1163.74 140.183 1164.33 146.506C1164.56 149.024 1164.8 151.488 1164.97 154.006C1165.09 155.939 1167.25 156.933 1168.83 155.823C1170.82 154.36 1172.87 152.896 1174.97 151.488C1180.23 147.915 1185.43 144.341 1190.81 140.884L1192.8 139.652C1184.44 132.037 1173.8 126.823 1162.05 125.183ZM1206.65 202.561C1200.28 202.152 1193.96 201.567 1187.59 200.982C1184.84 200.75 1182.15 200.457 1179.41 200.159C1177.65 199.927 1176.25 201.683 1176.9 203.378C1177.89 206.012 1178.82 208.652 1179.76 211.348C1181.81 217.323 1183.91 223.354 1185.84 229.445L1186.48 231.555C1196.65 224.585 1204.55 214.512 1208.7 202.677L1206.65 202.561ZM1203.55 152.652L1201.98 154.354C1197.59 159.043 1193.09 163.549 1188.59 168.061C1185.72 170.988 1182.62 173.799 1179.64 176.671C1183.62 177.665 1187.59 178.72 1191.57 179.89C1197.71 181.646 1203.79 183.348 1209.87 185.335L1212.03 186.037C1212.09 185.098 1212.09 184.104 1212.09 183.11C1212.09 171.927 1208.99 161.5 1203.55 152.652ZM1203.55 152.652L1201.98 154.354C1197.59 159.043 1193.09 163.549 1188.59 168.061C1185.72 170.988 1182.62 173.799 1179.64 176.671C1183.62 177.665 1187.59 178.72 1191.57 179.89C1197.71 181.646 1203.79 183.348 1209.87 185.335L1212.03 186.037C1212.09 185.098 1212.09 184.104 1212.09 183.11C1212.09 171.927 1208.99 161.5 1203.55 152.652ZM1206.65 202.561C1200.28 202.152 1193.96 201.567 1187.59 200.982C1184.84 200.75 1182.15 200.457 1179.41 200.159C1177.65 199.927 1176.25 201.683 1176.9 203.378C1177.89 206.012 1178.82 208.652 1179.76 211.348C1181.81 217.323 1183.91 223.354 1185.84 229.445L1186.48 231.555C1196.65 224.585 1204.55 214.512 1208.7 202.677L1206.65 202.561ZM1162.05 125.183L1162.34 127.47C1163.16 133.793 1163.74 140.183 1164.33 146.506C1164.56 149.024 1164.8 151.488 1164.97 154.006C1165.09 155.939 1167.25 156.933 1168.83 155.823C1170.82 154.36 1172.87 152.896 1174.97 151.488C1180.23 147.915 1185.43 144.341 1190.81 140.884L1192.8 139.652C1184.44 132.037 1173.8 126.823 1162.05 125.183ZM1162.05 125.183L1162.34 127.47C1163.16 133.793 1163.74 140.183 1164.33 146.506C1164.56 149.024 1164.8 151.488 1164.97 154.006C1165.09 155.939 1167.25 156.933 1168.83 155.823C1170.82 154.36 1172.87 152.896 1174.97 151.488C1180.23 147.915 1185.43 144.341 1190.81 140.884L1192.8 139.652C1184.44 132.037 1173.8 126.823 1162.05 125.183ZM1206.65 202.561C1200.28 202.152 1193.96 201.567 1187.59 200.982C1184.84 200.75 1182.15 200.457 1179.41 200.159C1177.65 199.927 1176.25 201.683 1176.9 203.378C1177.89 206.012 1178.82 208.652 1179.76 211.348C1181.81 217.323 1183.91 223.354 1185.84 229.445L1186.48 231.555C1196.65 224.585 1204.55 214.512 1208.7 202.677L1206.65 202.561ZM1203.55 152.652L1201.98 154.354C1197.59 159.043 1193.09 163.549 1188.59 168.061C1185.72 170.988 1182.62 173.799 1179.64 176.671C1183.62 177.665 1187.59 178.72 1191.57 179.89C1197.71 181.646 1203.79 183.348 1209.87 185.335L1212.03 186.037C1212.09 185.098 1212.09 184.104 1212.09 183.11C1212.09 171.927 1208.99 161.5 1203.55 152.652ZM1203.55 152.652L1201.98 154.354C1197.59 159.043 1193.09 163.549 1188.59 168.061C1185.72 170.988 1182.62 173.799 1179.64 176.671C1183.62 177.665 1187.59 178.72 1191.57 179.89C1197.71 181.646 1203.79 183.348 1209.87 185.335L1212.03 186.037C1212.09 185.098 1212.09 184.104 1212.09 183.11C1212.09 171.927 1208.99 161.5 1203.55 152.652ZM1206.65 202.561C1200.28 202.152 1193.96 201.567 1187.59 200.982C1184.84 200.75 1182.15 200.457 1179.41 200.159C1177.65 199.927 1176.25 201.683 1176.9 203.378C1177.89 206.012 1178.82 208.652 1179.76 211.348C1181.81 217.323 1183.91 223.354 1185.84 229.445L1186.48 231.555C1196.65 224.585 1204.55 214.512 1208.7 202.677L1206.65 202.561ZM1162.05 125.183L1162.34 127.47C1163.16 133.793 1163.74 140.183 1164.33 146.506C1164.56 149.024 1164.8 151.488 1164.97 154.006C1165.09 155.939 1167.25 156.933 1168.83 155.823C1170.82 154.36 1172.87 152.896 1174.97 151.488C1180.23 147.915 1185.43 144.341 1190.81 140.884L1192.8 139.652C1184.44 132.037 1173.8 126.823 1162.05 125.183ZM1169.94 236.707C1166.55 231.317 1163.39 225.756 1160.23 220.25C1158.83 217.848 1157.48 215.445 1156.2 212.988C1155.26 211.287 1152.86 211.287 1151.93 212.988C1150.58 215.506 1149.18 217.97 1147.72 220.366C1144.51 225.872 1141.29 231.378 1137.9 236.768L1136.43 239.11C1141.87 240.811 1147.66 241.689 1153.62 241.689C1159.76 241.689 1165.73 240.75 1171.28 238.933L1169.94 236.707ZM1162.05 125.183L1162.34 127.47C1163.16 133.793 1163.74 140.183 1164.33 146.506C1164.56 149.024 1164.8 151.488 1164.97 154.006C1165.09 155.939 1167.25 156.933 1168.83 155.823C1170.82 154.36 1172.87 152.896 1174.97 151.488C1180.23 147.915 1185.43 144.341 1190.81 140.884L1192.8 139.652C1184.44 132.037 1173.8 126.823 1162.05 125.183ZM1206.65 202.561C1200.28 202.152 1193.96 201.567 1187.59 200.982C1184.84 200.75 1182.15 200.457 1179.41 200.159C1177.65 199.927 1176.25 201.683 1176.9 203.378C1177.89 206.012 1178.82 208.652 1179.76 211.348C1181.81 217.323 1183.91 223.354 1185.84 229.445L1186.48 231.555C1196.65 224.585 1204.55 214.512 1208.7 202.677L1206.65 202.561ZM1203.55 152.652L1201.98 154.354C1197.59 159.043 1193.09 163.549 1188.59 168.061C1185.72 170.988 1182.62 173.799 1179.64 176.671C1183.62 177.665 1187.59 178.72 1191.57 179.89C1197.71 181.646 1203.79 183.348 1209.87 185.335L1212.03 186.037C1212.09 185.098 1212.09 184.104 1212.09 183.11C1212.09 171.927 1208.99 161.5 1203.55 152.652ZM1203.55 152.652L1201.98 154.354C1197.59 159.043 1193.09 163.549 1188.59 168.061C1185.72 170.988 1182.62 173.799 1179.64 176.671C1183.62 177.665 1187.59 178.72 1191.57 179.89C1197.71 181.646 1203.79 183.348 1209.87 185.335L1212.03 186.037C1212.09 185.098 1212.09 184.104 1212.09 183.11C1212.09 171.927 1208.99 161.5 1203.55 152.652ZM1206.65 202.561C1200.28 202.152 1193.96 201.567 1187.59 200.982C1184.84 200.75 1182.15 200.457 1179.41 200.159C1177.65 199.927 1176.25 201.683 1176.9 203.378C1177.89 206.012 1178.82 208.652 1179.76 211.348C1181.81 217.323 1183.91 223.354 1185.84 229.445L1186.48 231.555C1196.65 224.585 1204.55 214.512 1208.7 202.677L1206.65 202.561ZM1162.05 125.183L1162.34 127.47C1163.16 133.793 1163.74 140.183 1164.33 146.506C1164.56 149.024 1164.8 151.488 1164.97 154.006C1165.09 155.939 1167.25 156.933 1168.83 155.823C1170.82 154.36 1172.87 152.896 1174.97 151.488C1180.23 147.915 1185.43 144.341 1190.81 140.884L1192.8 139.652C1184.44 132.037 1173.8 126.823 1162.05 125.183ZM1169.94 236.707C1166.55 231.317 1163.39 225.756 1160.23 220.25C1158.83 217.848 1157.48 215.445 1156.2 212.988C1155.26 211.287 1152.86 211.287 1151.93 212.988C1150.58 215.506 1149.18 217.97 1147.72 220.366C1144.51 225.872 1141.29 231.378 1137.9 236.768L1136.43 239.11C1141.87 240.811 1147.66 241.689 1153.62 241.689C1159.76 241.689 1165.73 240.75 1171.28 238.933L1169.94 236.707ZM1128.9 199.341C1126.15 199.695 1123.46 200.104 1120.71 200.396C1114.34 201.159 1108.09 201.921 1101.71 202.506L1098.55 202.799C1102.82 214.75 1110.89 224.939 1121.24 231.854L1122.05 229.39C1124.04 223.299 1126.15 217.323 1128.31 211.293C1129.3 208.366 1130.36 205.494 1131.47 202.567C1132.17 200.86 1130.71 199.049 1128.9 199.341ZM1169.94 236.707C1166.55 231.317 1163.39 225.756 1160.23 220.25C1158.83 217.848 1157.48 215.445 1156.2 212.988C1155.26 211.287 1152.86 211.287 1151.93 212.988C1150.58 215.506 1149.18 217.97 1147.72 220.366C1144.51 225.872 1141.29 231.378 1137.9 236.768L1136.43 239.11C1141.87 240.811 1147.66 241.689 1153.62 241.689C1159.76 241.689 1165.73 240.75 1171.28 238.933L1169.94 236.707ZM1162.05 125.183L1162.34 127.47C1163.16 133.793 1163.74 140.183 1164.33 146.506C1164.56 149.024 1164.8 151.488 1164.97 154.006C1165.09 155.939 1167.25 156.933 1168.83 155.823C1170.82 154.36 1172.87 152.896 1174.97 151.488C1180.23 147.915 1185.43 144.341 1190.81 140.884L1192.8 139.652C1184.44 132.037 1173.8 126.823 1162.05 125.183ZM1206.65 202.561C1200.28 202.152 1193.96 201.567 1187.59 200.982C1184.84 200.75 1182.15 200.457 1179.41 200.159C1177.65 199.927 1176.25 201.683 1176.9 203.378C1177.89 206.012 1178.82 208.652 1179.76 211.348C1181.81 217.323 1183.91 223.354 1185.84 229.445L1186.48 231.555C1196.65 224.585 1204.55 214.512 1208.7 202.677L1206.65 202.561ZM1203.55 152.652L1201.98 154.354C1197.59 159.043 1193.09 163.549 1188.59 168.061C1185.72 170.988 1182.62 173.799 1179.64 176.671C1183.62 177.665 1187.59 178.72 1191.57 179.89C1197.71 181.646 1203.79 183.348 1209.87 185.335L1212.03 186.037C1212.09 185.098 1212.09 184.104 1212.09 183.11C1212.09 171.927 1208.99 161.5 1203.55 152.652ZM1203.55 152.652L1201.98 154.354C1197.59 159.043 1193.09 163.549 1188.59 168.061C1185.72 170.988 1182.62 173.799 1179.64 176.671C1183.62 177.665 1187.59 178.72 1191.57 179.89C1197.71 181.646 1203.79 183.348 1209.87 185.335L1212.03 186.037C1212.09 185.098 1212.09 184.104 1212.09 183.11C1212.09 171.927 1208.99 161.5 1203.55 152.652ZM1206.65 202.561C1200.28 202.152 1193.96 201.567 1187.59 200.982C1184.84 200.75 1182.15 200.457 1179.41 200.159C1177.65 199.927 1176.25 201.683 1176.9 203.378C1177.89 206.012 1178.82 208.652 1179.76 211.348C1181.81 217.323 1183.91 223.354 1185.84 229.445L1186.48 231.555C1196.65 224.585 1204.55 214.512 1208.7 202.677L1206.65 202.561ZM1162.05 125.183L1162.34 127.47C1163.16 133.793 1163.74 140.183 1164.33 146.506C1164.56 149.024 1164.8 151.488 1164.97 154.006C1165.09 155.939 1167.25 156.933 1168.83 155.823C1170.82 154.36 1172.87 152.896 1174.97 151.488C1180.23 147.915 1185.43 144.341 1190.81 140.884L1192.8 139.652C1184.44 132.037 1173.8 126.823 1162.05 125.183ZM1169.94 236.707C1166.55 231.317 1163.39 225.756 1160.23 220.25C1158.83 217.848 1157.48 215.445 1156.2 212.988C1155.26 211.287 1152.86 211.287 1151.93 212.988C1150.58 215.506 1149.18 217.97 1147.72 220.366C1144.51 225.872 1141.29 231.378 1137.9 236.768L1136.43 239.11C1141.87 240.811 1147.66 241.689 1153.62 241.689C1159.76 241.689 1165.73 240.75 1171.28 238.933L1169.94 236.707ZM1128.9 199.341C1126.15 199.695 1123.46 200.104 1120.71 200.396C1114.34 201.159 1108.09 201.921 1101.71 202.506L1098.55 202.799C1102.82 214.75 1110.89 224.939 1121.24 231.854L1122.05 229.39C1124.04 223.299 1126.15 217.323 1128.31 211.293C1129.3 208.366 1130.36 205.494 1131.47 202.567C1132.17 200.86 1130.71 199.049 1128.9 199.341ZM1128.9 199.341C1126.15 199.695 1123.46 200.104 1120.71 200.396C1114.34 201.159 1108.09 201.921 1101.71 202.506L1098.55 202.799C1102.82 214.75 1110.89 224.939 1121.24 231.854L1122.05 229.39C1124.04 223.299 1126.15 217.323 1128.31 211.293C1129.3 208.366 1130.36 205.494 1131.47 202.567C1132.17 200.86 1130.71 199.049 1128.9 199.341ZM1169.94 236.707C1166.55 231.317 1163.39 225.756 1160.23 220.25C1158.83 217.848 1157.48 215.445 1156.2 212.988C1155.26 211.287 1152.86 211.287 1151.93 212.988C1150.58 215.506 1149.18 217.97 1147.72 220.366C1144.51 225.872 1141.29 231.378 1137.9 236.768L1136.43 239.11C1141.87 240.811 1147.66 241.689 1153.62 241.689C1159.76 241.689 1165.73 240.75 1171.28 238.933L1169.94 236.707ZM1162.05 125.183L1162.34 127.47C1163.16 133.793 1163.74 140.183 1164.33 146.506C1164.56 149.024 1164.8 151.488 1164.97 154.006C1165.09 155.939 1167.25 156.933 1168.83 155.823C1170.82 154.36 1172.87 152.896 1174.97 151.488C1180.23 147.915 1185.43 144.341 1190.81 140.884L1192.8 139.652C1184.44 132.037 1173.8 126.823 1162.05 125.183ZM1206.65 202.561C1200.28 202.152 1193.96 201.567 1187.59 200.982C1184.84 200.75 1182.15 200.457 1179.41 200.159C1177.65 199.927 1176.25 201.683 1176.9 203.378C1177.89 206.012 1178.82 208.652 1179.76 211.348C1181.81 217.323 1183.91 223.354 1185.84 229.445L1186.48 231.555C1196.65 224.585 1204.55 214.512 1208.7 202.677L1206.65 202.561ZM1203.55 152.652L1201.98 154.354C1197.59 159.043 1193.09 163.549 1188.59 168.061C1185.72 170.988 1182.62 173.799 1179.64 176.671C1183.62 177.665 1187.59 178.72 1191.57 179.89C1197.71 181.646 1203.79 183.348 1209.87 185.335L1212.03 186.037C1212.09 185.098 1212.09 184.104 1212.09 183.11C1212.09 171.927 1208.99 161.5 1203.55 152.652ZM1203.55 152.652L1201.98 154.354C1197.59 159.043 1193.09 163.549 1188.59 168.061C1185.72 170.988 1182.62 173.799 1179.64 176.671C1183.62 177.665 1187.59 178.72 1191.57 179.89C1197.71 181.646 1203.79 183.348 1209.87 185.335L1212.03 186.037C1212.09 185.098 1212.09 184.104 1212.09 183.11C1212.09 171.927 1208.99 161.5 1203.55 152.652ZM1206.65 202.561C1200.28 202.152 1193.96 201.567 1187.59 200.982C1184.84 200.75 1182.15 200.457 1179.41 200.159C1177.65 199.927 1176.25 201.683 1176.9 203.378C1177.89 206.012 1178.82 208.652 1179.76 211.348C1181.81 217.323 1183.91 223.354 1185.84 229.445L1186.48 231.555C1196.65 224.585 1204.55 214.512 1208.7 202.677L1206.65 202.561ZM1162.05 125.183L1162.34 127.47C1163.16 133.793 1163.74 140.183 1164.33 146.506C1164.56 149.024 1164.8 151.488 1164.97 154.006C1165.09 155.939 1167.25 156.933 1168.83 155.823C1170.82 154.36 1172.87 152.896 1174.97 151.488C1180.23 147.915 1185.43 144.341 1190.81 140.884L1192.8 139.652C1184.44 132.037 1173.8 126.823 1162.05 125.183ZM1169.94 236.707C1166.55 231.317 1163.39 225.756 1160.23 220.25C1158.83 217.848 1157.48 215.445 1156.2 212.988C1155.26 211.287 1152.86 211.287 1151.93 212.988C1150.58 215.506 1149.18 217.97 1147.72 220.366C1144.51 225.872 1141.29 231.378 1137.9 236.768L1136.43 239.11C1141.87 240.811 1147.66 241.689 1153.62 241.689C1159.76 241.689 1165.73 240.75 1171.28 238.933L1169.94 236.707ZM1128.9 199.341C1126.15 199.695 1123.46 200.104 1120.71 200.396C1114.34 201.159 1108.09 201.921 1101.71 202.506L1098.55 202.799C1102.82 214.75 1110.89 224.939 1121.24 231.854L1122.05 229.39C1124.04 223.299 1126.15 217.323 1128.31 211.293C1129.3 208.366 1130.36 205.494 1131.47 202.567C1132.17 200.86 1130.71 199.049 1128.9 199.341ZM1125.62 172.628C1123.63 170.811 1121.71 168.994 1119.77 167.061C1115.21 162.549 1110.71 158.098 1106.27 153.47L1104.4 151.537C1098.55 160.616 1095.16 171.451 1095.16 183.11C1095.16 184.226 1095.22 185.274 1095.22 186.329L1097.97 185.39C1103.99 183.226 1110.07 181.348 1116.09 179.36C1118.96 178.421 1121.82 177.604 1124.68 176.726C1126.5 176.201 1127.02 173.915 1125.62 172.628ZM1128.9 199.341C1126.15 199.695 1123.46 200.104 1120.71 200.396C1114.34 201.159 1108.09 201.921 1101.71 202.506L1098.55 202.799C1102.82 214.75 1110.89 224.939 1121.24 231.854L1122.05 229.39C1124.04 223.299 1126.15 217.323 1128.31 211.293C1129.3 208.366 1130.36 205.494 1131.47 202.567C1132.17 200.86 1130.71 199.049 1128.9 199.341ZM1169.94 236.707C1166.55 231.317 1163.39 225.756 1160.23 220.25C1158.83 217.848 1157.48 215.445 1156.2 212.988C1155.26 211.287 1152.86 211.287 1151.93 212.988C1150.58 215.506 1149.18 217.97 1147.72 220.366C1144.51 225.872 1141.29 231.378 1137.9 236.768L1136.43 239.11C1141.87 240.811 1147.66 241.689 1153.62 241.689C1159.76 241.689 1165.73 240.75 1171.28 238.933L1169.94 236.707ZM1162.05 125.183L1162.34 127.47C1163.16 133.793 1163.74 140.183 1164.33 146.506C1164.56 149.024 1164.8 151.488 1164.97 154.006C1165.09 155.939 1167.25 156.933 1168.83 155.823C1170.82 154.36 1172.87 152.896 1174.97 151.488C1180.23 147.915 1185.43 144.341 1190.81 140.884L1192.8 139.652C1184.44 132.037 1173.8 126.823 1162.05 125.183ZM1206.65 202.561C1200.28 202.152 1193.96 201.567 1187.59 200.982C1184.84 200.75 1182.15 200.457 1179.41 200.159C1177.65 199.927 1176.25 201.683 1176.9 203.378C1177.89 206.012 1178.82 208.652 1179.76 211.348C1181.81 217.323 1183.91 223.354 1185.84 229.445L1186.48 231.555C1196.65 224.585 1204.55 214.512 1208.7 202.677L1206.65 202.561ZM1203.55 152.652L1201.98 154.354C1197.59 159.043 1193.09 163.549 1188.59 168.061C1185.72 170.988 1182.62 173.799 1179.64 176.671C1183.62 177.665 1187.59 178.72 1191.57 179.89C1197.71 181.646 1203.79 183.348 1209.87 185.335L1212.03 186.037C1212.09 185.098 1212.09 184.104 1212.09 183.11C1212.09 171.927 1208.99 161.5 1203.55 152.652ZM1203.55 152.652L1201.98 154.354C1197.59 159.043 1193.09 163.549 1188.59 168.061C1185.72 170.988 1182.62 173.799 1179.64 176.671C1183.62 177.665 1187.59 178.72 1191.57 179.89C1197.71 181.646 1203.79 183.348 1209.87 185.335L1212.03 186.037C1212.09 185.098 1212.09 184.104 1212.09 183.11C1212.09 171.927 1208.99 161.5 1203.55 152.652ZM1187.59 200.982C1184.84 200.75 1182.15 200.457 1179.41 200.159C1177.65 199.927 1176.25 201.683 1176.9 203.378C1177.89 206.012 1178.82 208.652 1179.76 211.348C1181.81 217.323 1183.91 223.354 1185.84 229.445L1186.48 231.555C1196.65 224.585 1204.55 214.512 1208.7 202.677L1206.65 202.561C1200.29 202.152 1193.97 201.567 1187.59 200.982ZM1192.8 139.652C1184.44 132.037 1173.8 126.823 1162.05 125.183L1162.34 127.47C1163.16 133.793 1163.74 140.183 1164.33 146.506C1164.56 149.024 1164.8 151.488 1164.97 154.006C1165.09 155.939 1167.25 156.933 1168.83 155.823C1170.82 154.36 1172.87 152.896 1174.97 151.488C1180.23 147.915 1185.43 144.341 1190.81 140.884L1192.8 139.652ZM1160.23 220.25C1158.83 217.848 1157.48 215.445 1156.2 212.988C1155.26 211.287 1152.86 211.287 1151.93 212.988C1150.58 215.506 1149.18 217.97 1147.72 220.366C1144.51 225.872 1141.29 231.378 1137.9 236.768L1136.43 239.11C1141.87 240.811 1147.66 241.689 1153.62 241.689C1159.76 241.689 1165.73 240.75 1171.28 238.933L1169.93 236.707C1166.55 231.323 1163.39 225.756 1160.23 220.25ZM1128.9 199.341C1126.15 199.695 1123.46 200.104 1120.71 200.396C1114.34 201.159 1108.09 201.921 1101.71 202.506L1098.55 202.799C1102.82 214.75 1110.89 224.939 1121.24 231.854L1122.05 229.39C1124.04 223.299 1126.15 217.323 1128.31 211.293C1129.3 208.366 1130.36 205.494 1131.47 202.567C1132.17 200.86 1130.71 199.049 1128.9 199.341ZM1124.68 176.726C1126.49 176.201 1127.03 173.915 1125.62 172.628C1123.63 170.811 1121.71 168.994 1119.77 167.061C1115.21 162.549 1110.71 158.098 1106.27 153.47L1104.4 151.537C1098.55 160.616 1095.16 171.451 1095.16 183.11C1095.16 184.226 1095.22 185.274 1095.22 186.329L1097.97 185.39C1103.99 183.226 1110.07 181.348 1116.09 179.36C1118.96 178.427 1121.82 177.61 1124.68 176.726ZM1280.67 203.5L1258.34 105.207C1257.34 100.817 1254.42 97.1829 1250.38 95.189L1160 51.4939C1155.96 49.5 1151.29 49.5 1147.26 51.4939L1056.87 95.189C1052.84 97.1829 1049.91 100.811 1048.92 105.207L1026.59 203.5C1025.59 207.89 1026.65 212.463 1029.39 215.921L1091.95 294.762C1094.75 298.274 1099.02 300.329 1103.46 300.329H1203.79C1208.23 300.329 1212.5 298.28 1215.3 294.762L1277.86 215.921C1280.61 212.457 1281.66 207.89 1280.67 203.5ZM1249.45 207.598C1247.7 208.006 1245.95 207.598 1244.54 206.72C1241.68 204.787 1238.64 203.732 1235.6 202.854C1234.08 202.445 1232.5 202.091 1230.98 201.86C1229.46 201.39 1227.71 201.86 1225.95 202.677C1224.2 203.671 1222.62 203.5 1220.98 203.378H1220.8C1215.77 220.073 1204.73 234.189 1190.11 243.152V243.213C1190.58 244.738 1191.1 246.201 1190.63 248.195C1190.23 250.128 1190.16 251.884 1190.99 253.293C1191.63 254.701 1192.34 256.165 1193.09 257.512C1194.67 260.262 1196.43 263.018 1198.99 265.305C1201.57 267.707 1201.74 271.689 1199.4 274.323C1197.01 276.902 1193.03 277.073 1190.4 274.732C1189.05 273.5 1188.35 271.86 1188.35 270.165C1188.23 266.707 1187.35 263.665 1186.3 260.616C1185.77 259.152 1185.19 257.689 1184.49 256.226C1183.96 254.701 1182.56 253.646 1180.86 252.652C1179.23 251.774 1178.4 250.543 1177.59 249.195C1170.1 251.951 1162.04 253.415 1153.62 253.415C1145.32 253.415 1137.37 251.951 1129.99 249.317C1129.29 250.604 1128.48 251.774 1126.84 252.659C1125.14 253.598 1123.74 254.707 1123.21 256.232C1122.51 257.64 1121.87 259.104 1121.34 260.567C1120.29 263.616 1119.35 266.659 1119.29 270.116C1119.18 273.628 1116.2 276.384 1112.69 276.268C1109.18 276.152 1106.43 273.226 1106.55 269.707C1106.61 267.89 1107.43 266.311 1108.65 265.195C1111.23 262.854 1112.98 260.159 1114.62 257.463C1115.38 256.055 1116.08 254.652 1116.72 253.189C1117.54 251.841 1117.48 250.024 1117.13 248.091C1116.72 246.274 1117.13 244.811 1117.6 243.463C1102.92 234.616 1091.7 220.561 1086.55 203.866C1085.21 203.982 1083.93 203.982 1082.4 203.22C1080.59 202.457 1078.9 201.988 1077.37 202.518C1075.79 202.811 1074.27 203.22 1072.76 203.689C1069.71 204.683 1066.73 205.799 1063.93 207.787C1061.06 209.835 1057.09 209.134 1055.04 206.262C1053.05 203.39 1053.7 199.409 1056.56 197.415C1058.02 196.36 1059.84 196.006 1061.47 196.299C1064.8 197 1068.02 196.768 1071.18 196.36C1072.76 196.183 1074.34 195.89 1075.85 195.482C1077.43 195.366 1078.84 194.195 1080.12 192.732C1081.23 191.445 1082.52 190.915 1083.8 190.445C1083.57 188.043 1083.45 185.585 1083.45 183.122C1083.45 168.128 1088.13 154.244 1096.14 142.823C1095.09 141.768 1094.09 140.713 1093.68 138.841C1093.16 136.97 1092.46 135.329 1091.11 134.451C1089.88 133.396 1088.65 132.457 1087.37 131.579C1084.68 129.823 1081.93 128.183 1078.65 127.189C1075.26 126.25 1073.27 122.677 1074.27 119.341C1075.26 115.945 1078.77 114.012 1082.16 114.951C1083.85 115.476 1085.26 116.652 1086.02 118.116C1087.6 121.165 1089.76 123.561 1092.04 125.787C1093.15 126.902 1094.38 127.951 1095.61 128.89C1096.72 130.061 1098.48 130.415 1100.4 130.53C1102.45 130.591 1103.73 131.47 1105.08 132.348L1105.14 132.409C1116.13 121.75 1130.63 114.72 1146.71 113.195C1146.88 111.616 1147 110.03 1148.23 108.451C1149.4 106.872 1150.21 105.287 1150.04 103.707C1150.1 102.128 1150.04 100.543 1149.92 98.9024C1149.57 95.7378 1149.1 92.5732 1147.76 89.4146C1146.35 86.1951 1147.87 82.4451 1151.09 81.0366C1154.3 79.689 1158.05 81.1524 1159.45 84.378C1160.15 86.0793 1160.09 87.8902 1159.45 89.4146C1158.1 92.5793 1157.64 95.7378 1157.29 98.9024C1157.17 100.543 1157.11 102.122 1157.17 103.707C1156.99 105.287 1157.81 106.872 1158.98 108.451C1160.21 110.03 1160.33 111.616 1160.5 113.195C1176.99 114.774 1191.84 122.098 1202.95 133.226C1204.29 132.348 1205.57 131.409 1207.62 131.354C1209.55 131.238 1211.3 130.884 1212.41 129.713C1213.64 128.72 1214.81 127.665 1215.98 126.549C1218.2 124.323 1220.37 121.921 1221.95 118.878C1223.52 115.713 1227.38 114.488 1230.48 116.128C1233.64 117.707 1234.87 121.573 1233.23 124.683C1232.41 126.323 1231.01 127.439 1229.37 127.902C1226.1 128.841 1223.35 130.537 1220.72 132.293C1219.43 133.232 1218.15 134.165 1216.98 135.22C1215.63 136.098 1214.93 137.738 1214.4 139.61C1213.99 141.604 1212.88 142.713 1211.77 143.884C1219.37 155.073 1223.76 168.604 1223.76 183.128C1223.76 185.354 1223.65 187.579 1223.47 189.75H1223.53C1225.05 190.22 1226.57 190.628 1227.91 192.207C1229.26 193.616 1230.66 194.665 1232.24 194.787C1233.82 195.14 1235.34 195.372 1236.92 195.549C1240.13 195.841 1243.29 195.957 1246.68 195.195C1250.13 194.433 1253.52 196.604 1254.28 200.055C1255.06 203.439 1252.9 206.835 1249.45 207.598ZM1201.98 154.354C1197.59 159.043 1193.09 163.549 1188.59 168.061C1185.72 170.988 1182.62 173.799 1179.64 176.671C1183.62 177.665 1187.59 178.72 1191.57 179.89C1197.71 181.646 1203.79 183.348 1209.87 185.335L1212.03 186.037C1212.09 185.098 1212.09 184.104 1212.09 183.11C1212.09 171.921 1208.99 161.494 1203.55 152.652L1201.98 154.354ZM1187.59 200.982C1184.84 200.75 1182.15 200.457 1179.41 200.159C1177.65 199.927 1176.25 201.683 1176.9 203.378C1177.89 206.012 1178.82 208.652 1179.76 211.348C1181.81 217.323 1183.91 223.354 1185.84 229.445L1186.48 231.555C1196.65 224.585 1204.55 214.512 1208.7 202.677L1206.65 202.561C1200.29 202.152 1193.97 201.567 1187.59 200.982ZM1192.8 139.652C1184.44 132.037 1173.8 126.823 1162.05 125.183L1162.34 127.47C1163.16 133.793 1163.74 140.183 1164.33 146.506C1164.56 149.024 1164.8 151.488 1164.97 154.006C1165.09 155.939 1167.25 156.933 1168.83 155.823C1170.82 154.36 1172.87 152.896 1174.97 151.488C1180.23 147.915 1185.43 144.341 1190.81 140.884L1192.8 139.652ZM1160.23 220.25C1158.83 217.848 1157.48 215.445 1156.2 212.988C1155.26 211.287 1152.86 211.287 1151.93 212.988C1150.58 215.506 1149.18 217.97 1147.72 220.366C1144.51 225.872 1141.29 231.378 1137.9 236.768L1136.43 239.11C1141.87 240.811 1147.66 241.689 1153.62 241.689C1159.76 241.689 1165.73 240.75 1171.28 238.933L1169.93 236.707C1166.55 231.323 1163.39 225.756 1160.23 220.25ZM1142.93 146.506C1143.51 140.177 1144.1 133.793 1144.91 127.47L1145.21 125.183C1133.93 126.762 1123.7 131.628 1115.51 138.774L1117.32 139.89C1122.76 143.287 1128.02 146.86 1133.28 150.433C1136.32 152.366 1139.18 154.53 1142.05 156.585C1142.29 153.238 1142.58 149.841 1142.93 146.506ZM1128.9 199.341C1126.15 199.695 1123.46 200.104 1120.71 200.396C1114.34 201.159 1108.09 201.921 1101.71 202.506L1098.55 202.799C1102.82 214.75 1110.89 224.939 1121.24 231.854L1122.05 229.39C1124.04 223.299 1126.15 217.323 1128.31 211.293C1129.3 208.366 1130.36 205.494 1131.47 202.567C1132.17 200.86 1130.71 199.049 1128.9 199.341ZM1124.68 176.726C1126.49 176.201 1127.03 173.915 1125.62 172.628C1123.63 170.811 1121.71 168.994 1119.77 167.061C1115.21 162.549 1110.71 158.098 1106.27 153.47L1104.4 151.537C1098.55 160.616 1095.16 171.451 1095.16 183.11C1095.16 184.226 1095.22 185.274 1095.22 186.329L1097.97 185.39C1103.99 183.226 1110.07 181.348 1116.09 179.36C1118.96 178.427 1121.82 177.61 1124.68 176.726ZM1125.62 172.628C1123.63 170.811 1121.71 168.994 1119.77 167.061C1115.21 162.549 1110.71 158.098 1106.27 153.47L1104.4 151.537C1098.55 160.616 1095.16 171.451 1095.16 183.11C1095.16 184.226 1095.22 185.274 1095.22 186.329L1097.97 185.39C1103.99 183.226 1110.07 181.348 1116.09 179.36C1118.96 178.421 1121.82 177.604 1124.68 176.726C1126.5 176.201 1127.02 173.915 1125.62 172.628ZM1128.9 199.341C1126.15 199.695 1123.46 200.104 1120.71 200.396C1114.34 201.159 1108.09 201.921 1101.71 202.506L1098.55 202.799C1102.82 214.75 1110.89 224.939 1121.24 231.854L1122.05 229.39C1124.04 223.299 1126.15 217.323 1128.31 211.293C1129.3 208.366 1130.36 205.494 1131.47 202.567C1132.17 200.86 1130.71 199.049 1128.9 199.341ZM1169.94 236.707C1166.55 231.317 1163.39 225.756 1160.23 220.25C1158.83 217.848 1157.48 215.445 1156.2 212.988C1155.26 211.287 1152.86 211.287 1151.93 212.988C1150.58 215.506 1149.18 217.97 1147.72 220.366C1144.51 225.872 1141.29 231.378 1137.9 236.768L1136.43 239.11C1141.87 240.811 1147.66 241.689 1153.62 241.689C1159.76 241.689 1165.73 240.75 1171.28 238.933L1169.94 236.707ZM1162.05 125.183L1162.34 127.47C1163.16 133.793 1163.74 140.183 1164.33 146.506C1164.56 149.024 1164.8 151.488 1164.97 154.006C1165.09 155.939 1167.25 156.933 1168.83 155.823C1170.82 154.36 1172.87 152.896 1174.97 151.488C1180.23 147.915 1185.43 144.341 1190.81 140.884L1192.8 139.652C1184.44 132.037 1173.8 126.823 1162.05 125.183ZM1206.65 202.561C1200.28 202.152 1193.96 201.567 1187.59 200.982C1184.84 200.75 1182.15 200.457 1179.41 200.159C1177.65 199.927 1176.25 201.683 1176.9 203.378C1177.89 206.012 1178.82 208.652 1179.76 211.348C1181.81 217.323 1183.91 223.354 1185.84 229.445L1186.48 231.555C1196.65 224.585 1204.55 214.512 1208.7 202.677L1206.65 202.561ZM1203.55 152.652L1201.98 154.354C1197.59 159.043 1193.09 163.549 1188.59 168.061C1185.72 170.988 1182.62 173.799 1179.64 176.671C1183.62 177.665 1187.59 178.72 1191.57 179.89C1197.71 181.646 1203.79 183.348 1209.87 185.335L1212.03 186.037C1212.09 185.098 1212.09 184.104 1212.09 183.11C1212.09 171.927 1208.99 161.5 1203.55 152.652ZM1203.55 152.652L1201.98 154.354C1197.59 159.043 1193.09 163.549 1188.59 168.061C1185.72 170.988 1182.62 173.799 1179.64 176.671C1183.62 177.665 1187.59 178.72 1191.57 179.89C1197.71 181.646 1203.79 183.348 1209.87 185.335L1212.03 186.037C1212.09 185.098 1212.09 184.104 1212.09 183.11C1212.09 171.927 1208.99 161.5 1203.55 152.652ZM1206.65 202.561C1200.28 202.152 1193.96 201.567 1187.59 200.982C1184.84 200.75 1182.15 200.457 1179.41 200.159C1177.65 199.927 1176.25 201.683 1176.9 203.378C1177.89 206.012 1178.82 208.652 1179.76 211.348C1181.81 217.323 1183.91 223.354 1185.84 229.445L1186.48 231.555C1196.65 224.585 1204.55 214.512 1208.7 202.677L1206.65 202.561ZM1162.05 125.183L1162.34 127.47C1163.16 133.793 1163.74 140.183 1164.33 146.506C1164.56 149.024 1164.8 151.488 1164.97 154.006C1165.09 155.939 1167.25 156.933 1168.83 155.823C1170.82 154.36 1172.87 152.896 1174.97 151.488C1180.23 147.915 1185.43 144.341 1190.81 140.884L1192.8 139.652C1184.44 132.037 1173.8 126.823 1162.05 125.183ZM1169.94 236.707C1166.55 231.317 1163.39 225.756 1160.23 220.25C1158.83 217.848 1157.48 215.445 1156.2 212.988C1155.26 211.287 1152.86 211.287 1151.93 212.988C1150.58 215.506 1149.18 217.97 1147.72 220.366C1144.51 225.872 1141.29 231.378 1137.9 236.768L1136.43 239.11C1141.87 240.811 1147.66 241.689 1153.62 241.689C1159.76 241.689 1165.73 240.75 1171.28 238.933L1169.94 236.707ZM1128.9 199.341C1126.15 199.695 1123.46 200.104 1120.71 200.396C1114.34 201.159 1108.09 201.921 1101.71 202.506L1098.55 202.799C1102.82 214.75 1110.89 224.939 1121.24 231.854L1122.05 229.39C1124.04 223.299 1126.15 217.323 1128.31 211.293C1129.3 208.366 1130.36 205.494 1131.47 202.567C1132.17 200.86 1130.71 199.049 1128.9 199.341ZM1125.62 172.628C1123.63 170.811 1121.71 168.994 1119.77 167.061C1115.21 162.549 1110.71 158.098 1106.27 153.47L1104.4 151.537C1098.55 160.616 1095.16 171.451 1095.16 183.11C1095.16 184.226 1095.22 185.274 1095.22 186.329L1097.97 185.39C1103.99 183.226 1110.07 181.348 1116.09 179.36C1118.96 178.421 1121.82 177.604 1124.68 176.726C1126.5 176.201 1127.02 173.915 1125.62 172.628ZM1128.9 199.341C1126.15 199.695 1123.46 200.104 1120.71 200.396C1114.34 201.159 1108.09 201.921 1101.71 202.506L1098.55 202.799C1102.82 214.75 1110.89 224.939 1121.24 231.854L1122.05 229.39C1124.04 223.299 1126.15 217.323 1128.31 211.293C1129.3 208.366 1130.36 205.494 1131.47 202.567C1132.17 200.86 1130.71 199.049 1128.9 199.341ZM1169.94 236.707C1166.55 231.317 1163.39 225.756 1160.23 220.25C1158.83 217.848 1157.48 215.445 1156.2 212.988C1155.26 211.287 1152.86 211.287 1151.93 212.988C1150.58 215.506 1149.18 217.97 1147.72 220.366C1144.51 225.872 1141.29 231.378 1137.9 236.768L1136.43 239.11C1141.87 240.811 1147.66 241.689 1153.62 241.689C1159.76 241.689 1165.73 240.75 1171.28 238.933L1169.94 236.707ZM1162.05 125.183L1162.34 127.47C1163.16 133.793 1163.74 140.183 1164.33 146.506C1164.56 149.024 1164.8 151.488 1164.97 154.006C1165.09 155.939 1167.25 156.933 1168.83 155.823C1170.82 154.36 1172.87 152.896 1174.97 151.488C1180.23 147.915 1185.43 144.341 1190.81 140.884L1192.8 139.652C1184.44 132.037 1173.8 126.823 1162.05 125.183ZM1206.65 202.561C1200.28 202.152 1193.96 201.567 1187.59 200.982C1184.84 200.75 1182.15 200.457 1179.41 200.159C1177.65 199.927 1176.25 201.683 1176.9 203.378C1177.89 206.012 1178.82 208.652 1179.76 211.348C1181.81 217.323 1183.91 223.354 1185.84 229.445L1186.48 231.555C1196.65 224.585 1204.55 214.512 1208.7 202.677L1206.65 202.561ZM1203.55 152.652L1201.98 154.354C1197.59 159.043 1193.09 163.549 1188.59 168.061C1185.72 170.988 1182.62 173.799 1179.64 176.671C1183.62 177.665 1187.59 178.72 1191.57 179.89C1197.71 181.646 1203.79 183.348 1209.87 185.335L1212.03 186.037C1212.09 185.098 1212.09 184.104 1212.09 183.11C1212.09 171.927 1208.99 161.5 1203.55 152.652ZM1203.55 152.652L1201.98 154.354C1197.59 159.043 1193.09 163.549 1188.59 168.061C1185.72 170.988 1182.62 173.799 1179.64 176.671C1183.62 177.665 1187.59 178.72 1191.57 179.89C1197.71 181.646 1203.79 183.348 1209.87 185.335L1212.03 186.037C1212.09 185.098 1212.09 184.104 1212.09 183.11C1212.09 171.927 1208.99 161.5 1203.55 152.652ZM1206.65 202.561C1200.28 202.152 1193.96 201.567 1187.59 200.982C1184.84 200.75 1182.15 200.457 1179.41 200.159C1177.65 199.927 1176.25 201.683 1176.9 203.378C1177.89 206.012 1178.82 208.652 1179.76 211.348C1181.81 217.323 1183.91 223.354 1185.84 229.445L1186.48 231.555C1196.65 224.585 1204.55 214.512 1208.7 202.677L1206.65 202.561ZM1162.05 125.183L1162.34 127.47C1163.16 133.793 1163.74 140.183 1164.33 146.506C1164.56 149.024 1164.8 151.488 1164.97 154.006C1165.09 155.939 1167.25 156.933 1168.83 155.823C1170.82 154.36 1172.87 152.896 1174.97 151.488C1180.23 147.915 1185.43 144.341 1190.81 140.884L1192.8 139.652C1184.44 132.037 1173.8 126.823 1162.05 125.183ZM1169.94 236.707C1166.55 231.317 1163.39 225.756 1160.23 220.25C1158.83 217.848 1157.48 215.445 1156.2 212.988C1155.26 211.287 1152.86 211.287 1151.93 212.988C1150.58 215.506 1149.18 217.97 1147.72 220.366C1144.51 225.872 1141.29 231.378 1137.9 236.768L1136.43 239.11C1141.87 240.811 1147.66 241.689 1153.62 241.689C1159.76 241.689 1165.73 240.75 1171.28 238.933L1169.94 236.707ZM1128.9 199.341C1126.15 199.695 1123.46 200.104 1120.71 200.396C1114.34 201.159 1108.09 201.921 1101.71 202.506L1098.55 202.799C1102.82 214.75 1110.89 224.939 1121.24 231.854L1122.05 229.39C1124.04 223.299 1126.15 217.323 1128.31 211.293C1129.3 208.366 1130.36 205.494 1131.47 202.567C1132.17 200.86 1130.71 199.049 1128.9 199.341ZM1169.94 236.707C1166.55 231.317 1163.39 225.756 1160.23 220.25C1158.83 217.848 1157.48 215.445 1156.2 212.988C1155.26 211.287 1152.86 211.287 1151.93 212.988C1150.58 215.506 1149.18 217.97 1147.72 220.366C1144.51 225.872 1141.29 231.378 1137.9 236.768L1136.43 239.11C1141.87 240.811 1147.66 241.689 1153.62 241.689C1159.76 241.689 1165.73 240.75 1171.28 238.933L1169.94 236.707ZM1162.05 125.183L1162.34 127.47C1163.16 133.793 1163.74 140.183 1164.33 146.506C1164.56 149.024 1164.8 151.488 1164.97 154.006C1165.09 155.939 1167.25 156.933 1168.83 155.823C1170.82 154.36 1172.87 152.896 1174.97 151.488C1180.23 147.915 1185.43 144.341 1190.81 140.884L1192.8 139.652C1184.44 132.037 1173.8 126.823 1162.05 125.183ZM1206.65 202.561C1200.28 202.152 1193.96 201.567 1187.59 200.982C1184.84 200.75 1182.15 200.457 1179.41 200.159C1177.65 199.927 1176.25 201.683 1176.9 203.378C1177.89 206.012 1178.82 208.652 1179.76 211.348C1181.81 217.323 1183.91 223.354 1185.84 229.445L1186.48 231.555C1196.65 224.585 1204.55 214.512 1208.7 202.677L1206.65 202.561ZM1203.55 152.652L1201.98 154.354C1197.59 159.043 1193.09 163.549 1188.59 168.061C1185.72 170.988 1182.62 173.799 1179.64 176.671C1183.62 177.665 1187.59 178.72 1191.57 179.89C1197.71 181.646 1203.79 183.348 1209.87 185.335L1212.03 186.037C1212.09 185.098 1212.09 184.104 1212.09 183.11C1212.09 171.927 1208.99 161.5 1203.55 152.652ZM1203.55 152.652L1201.98 154.354C1197.59 159.043 1193.09 163.549 1188.59 168.061C1185.72 170.988 1182.62 173.799 1179.64 176.671C1183.62 177.665 1187.59 178.72 1191.57 179.89C1197.71 181.646 1203.79 183.348 1209.87 185.335L1212.03 186.037C1212.09 185.098 1212.09 184.104 1212.09 183.11C1212.09 171.927 1208.99 161.5 1203.55 152.652ZM1206.65 202.561C1200.28 202.152 1193.96 201.567 1187.59 200.982C1184.84 200.75 1182.15 200.457 1179.41 200.159C1177.65 199.927 1176.25 201.683 1176.9 203.378C1177.89 206.012 1178.82 208.652 1179.76 211.348C1181.81 217.323 1183.91 223.354 1185.84 229.445L1186.48 231.555C1196.65 224.585 1204.55 214.512 1208.7 202.677L1206.65 202.561ZM1162.05 125.183L1162.34 127.47C1163.16 133.793 1163.74 140.183 1164.33 146.506C1164.56 149.024 1164.8 151.488 1164.97 154.006C1165.09 155.939 1167.25 156.933 1168.83 155.823C1170.82 154.36 1172.87 152.896 1174.97 151.488C1180.23 147.915 1185.43 144.341 1190.81 140.884L1192.8 139.652C1184.44 132.037 1173.8 126.823 1162.05 125.183ZM1169.94 236.707C1166.55 231.317 1163.39 225.756 1160.23 220.25C1158.83 217.848 1157.48 215.445 1156.2 212.988C1155.26 211.287 1152.86 211.287 1151.93 212.988C1150.58 215.506 1149.18 217.97 1147.72 220.366C1144.51 225.872 1141.29 231.378 1137.9 236.768L1136.43 239.11C1141.87 240.811 1147.66 241.689 1153.62 241.689C1159.76 241.689 1165.73 240.75 1171.28 238.933L1169.94 236.707ZM1169.94 236.707C1166.55 231.317 1163.39 225.756 1160.23 220.25C1158.83 217.848 1157.48 215.445 1156.2 212.988C1155.26 211.287 1152.86 211.287 1151.93 212.988C1150.58 215.506 1149.18 217.97 1147.72 220.366C1144.51 225.872 1141.29 231.378 1137.9 236.768L1136.43 239.11C1141.87 240.811 1147.66 241.689 1153.62 241.689C1159.76 241.689 1165.73 240.75 1171.28 238.933L1169.94 236.707ZM1162.05 125.183L1162.34 127.47C1163.16 133.793 1163.74 140.183 1164.33 146.506C1164.56 149.024 1164.8 151.488 1164.97 154.006C1165.09 155.939 1167.25 156.933 1168.83 155.823C1170.82 154.36 1172.87 152.896 1174.97 151.488C1180.23 147.915 1185.43 144.341 1190.81 140.884L1192.8 139.652C1184.44 132.037 1173.8 126.823 1162.05 125.183ZM1206.65 202.561C1200.28 202.152 1193.96 201.567 1187.59 200.982C1184.84 200.75 1182.15 200.457 1179.41 200.159C1177.65 199.927 1176.25 201.683 1176.9 203.378C1177.89 206.012 1178.82 208.652 1179.76 211.348C1181.81 217.323 1183.91 223.354 1185.84 229.445L1186.48 231.555C1196.65 224.585 1204.55 214.512 1208.7 202.677L1206.65 202.561ZM1203.55 152.652L1201.98 154.354C1197.59 159.043 1193.09 163.549 1188.59 168.061C1185.72 170.988 1182.62 173.799 1179.64 176.671C1183.62 177.665 1187.59 178.72 1191.57 179.89C1197.71 181.646 1203.79 183.348 1209.87 185.335L1212.03 186.037C1212.09 185.098 1212.09 184.104 1212.09 183.11C1212.09 171.927 1208.99 161.5 1203.55 152.652ZM1203.55 152.652L1201.98 154.354C1197.59 159.043 1193.09 163.549 1188.59 168.061C1185.72 170.988 1182.62 173.799 1179.64 176.671C1183.62 177.665 1187.59 178.72 1191.57 179.89C1197.71 181.646 1203.79 183.348 1209.87 185.335L1212.03 186.037C1212.09 185.098 1212.09 184.104 1212.09 183.11C1212.09 171.927 1208.99 161.5 1203.55 152.652ZM1206.65 202.561C1200.28 202.152 1193.96 201.567 1187.59 200.982C1184.84 200.75 1182.15 200.457 1179.41 200.159C1177.65 199.927 1176.25 201.683 1176.9 203.378C1177.89 206.012 1178.82 208.652 1179.76 211.348C1181.81 217.323 1183.91 223.354 1185.84 229.445L1186.48 231.555C1196.65 224.585 1204.55 214.512 1208.7 202.677L1206.65 202.561ZM1162.05 125.183L1162.34 127.47C1163.16 133.793 1163.74 140.183 1164.33 146.506C1164.56 149.024 1164.8 151.488 1164.97 154.006C1165.09 155.939 1167.25 156.933 1168.83 155.823C1170.82 154.36 1172.87 152.896 1174.97 151.488C1180.23 147.915 1185.43 144.341 1190.81 140.884L1192.8 139.652C1184.44 132.037 1173.8 126.823 1162.05 125.183ZM1169.94 236.707C1166.55 231.317 1163.39 225.756 1160.23 220.25C1158.83 217.848 1157.48 215.445 1156.2 212.988C1155.26 211.287 1152.86 211.287 1151.93 212.988C1150.58 215.506 1149.18 217.97 1147.72 220.366C1144.51 225.872 1141.29 231.378 1137.9 236.768L1136.43 239.11C1141.87 240.811 1147.66 241.689 1153.62 241.689C1159.76 241.689 1165.73 240.75 1171.28 238.933L1169.94 236.707ZM1162.05 125.183L1162.34 127.47C1163.16 133.793 1163.74 140.183 1164.33 146.506C1164.56 149.024 1164.8 151.488 1164.97 154.006C1165.09 155.939 1167.25 156.933 1168.83 155.823C1170.82 154.36 1172.87 152.896 1174.97 151.488C1180.23 147.915 1185.43 144.341 1190.81 140.884L1192.8 139.652C1184.44 132.037 1173.8 126.823 1162.05 125.183ZM1206.65 202.561C1200.28 202.152 1193.96 201.567 1187.59 200.982C1184.84 200.75 1182.15 200.457 1179.41 200.159C1177.65 199.927 1176.25 201.683 1176.9 203.378C1177.89 206.012 1178.82 208.652 1179.76 211.348C1181.81 217.323 1183.91 223.354 1185.84 229.445L1186.48 231.555C1196.65 224.585 1204.55 214.512 1208.7 202.677L1206.65 202.561ZM1203.55 152.652L1201.98 154.354C1197.59 159.043 1193.09 163.549 1188.59 168.061C1185.72 170.988 1182.62 173.799 1179.64 176.671C1183.62 177.665 1187.59 178.72 1191.57 179.89C1197.71 181.646 1203.79 183.348 1209.87 185.335L1212.03 186.037C1212.09 185.098 1212.09 184.104 1212.09 183.11C1212.09 171.927 1208.99 161.5 1203.55 152.652ZM1203.55 152.652L1201.98 154.354C1197.59 159.043 1193.09 163.549 1188.59 168.061C1185.72 170.988 1182.62 173.799 1179.64 176.671C1183.62 177.665 1187.59 178.72 1191.57 179.89C1197.71 181.646 1203.79 183.348 1209.87 185.335L1212.03 186.037C1212.09 185.098 1212.09 184.104 1212.09 183.11C1212.09 171.927 1208.99 161.5 1203.55 152.652ZM1206.65 202.561C1200.28 202.152 1193.96 201.567 1187.59 200.982C1184.84 200.75 1182.15 200.457 1179.41 200.159C1177.65 199.927 1176.25 201.683 1176.9 203.378C1177.89 206.012 1178.82 208.652 1179.76 211.348C1181.81 217.323 1183.91 223.354 1185.84 229.445L1186.48 231.555C1196.65 224.585 1204.55 214.512 1208.7 202.677L1206.65 202.561ZM1162.05 125.183L1162.34 127.47C1163.16 133.793 1163.74 140.183 1164.33 146.506C1164.56 149.024 1164.8 151.488 1164.97 154.006C1165.09 155.939 1167.25 156.933 1168.83 155.823C1170.82 154.36 1172.87 152.896 1174.97 151.488C1180.23 147.915 1185.43 144.341 1190.81 140.884L1192.8 139.652C1184.44 132.037 1173.8 126.823 1162.05 125.183ZM1162.05 125.183L1162.34 127.47C1163.16 133.793 1163.74 140.183 1164.33 146.506C1164.56 149.024 1164.8 151.488 1164.97 154.006C1165.09 155.939 1167.25 156.933 1168.83 155.823C1170.82 154.36 1172.87 152.896 1174.97 151.488C1180.23 147.915 1185.43 144.341 1190.81 140.884L1192.8 139.652C1184.44 132.037 1173.8 126.823 1162.05 125.183ZM1203.55 152.652L1201.98 154.354C1197.59 159.043 1193.09 163.549 1188.59 168.061C1185.72 170.988 1182.62 173.799 1179.64 176.671C1183.62 177.665 1187.59 178.72 1191.57 179.89C1197.71 181.646 1203.79 183.348 1209.87 185.335L1212.03 186.037C1212.09 185.098 1212.09 184.104 1212.09 183.11C1212.09 171.927 1208.99 161.5 1203.55 152.652ZM1203.55 152.652L1201.98 154.354C1197.59 159.043 1193.09 163.549 1188.59 168.061C1185.72 170.988 1182.62 173.799 1179.64 176.671C1183.62 177.665 1187.59 178.72 1191.57 179.89C1197.71 181.646 1203.79 183.348 1209.87 185.335L1212.03 186.037C1212.09 185.098 1212.09 184.104 1212.09 183.11C1212.09 171.927 1208.99 161.5 1203.55 152.652ZM1162.05 125.183L1162.34 127.47C1163.16 133.793 1163.74 140.183 1164.33 146.506C1164.56 149.024 1164.8 151.488 1164.97 154.006C1165.09 155.939 1167.25 156.933 1168.83 155.823C1170.82 154.36 1172.87 152.896 1174.97 151.488C1180.23 147.915 1185.43 144.341 1190.81 140.884L1192.8 139.652C1184.44 132.037 1173.8 126.823 1162.05 125.183ZM1162.05 125.183L1162.34 127.47C1163.16 133.793 1163.74 140.183 1164.33 146.506C1164.56 149.024 1164.8 151.488 1164.97 154.006C1165.09 155.939 1167.25 156.933 1168.83 155.823C1170.82 154.36 1172.87 152.896 1174.97 151.488C1180.23 147.915 1185.43 144.341 1190.81 140.884L1192.8 139.652C1184.44 132.037 1173.8 126.823 1162.05 125.183ZM1203.55 152.652L1201.98 154.354C1197.59 159.043 1193.09 163.549 1188.59 168.061C1185.72 170.988 1182.62 173.799 1179.64 176.671C1183.62 177.665 1187.59 178.72 1191.57 179.89C1197.71 181.646 1203.79 183.348 1209.87 185.335L1212.03 186.037C1212.09 185.098 1212.09 184.104 1212.09 183.11C1212.09 171.927 1208.99 161.5 1203.55 152.652ZM1203.55 152.652L1201.98 154.354C1197.59 159.043 1193.09 163.549 1188.59 168.061C1185.72 170.988 1182.62 173.799 1179.64 176.671C1183.62 177.665 1187.59 178.72 1191.57 179.89C1197.71 181.646 1203.79 183.348 1209.87 185.335L1212.03 186.037C1212.09 185.098 1212.09 184.104 1212.09 183.11C1212.09 171.927 1208.99 161.5 1203.55 152.652ZM1162.05 125.183L1162.34 127.47C1163.16 133.793 1163.74 140.183 1164.33 146.506C1164.56 149.024 1164.8 151.488 1164.97 154.006C1165.09 155.939 1167.25 156.933 1168.83 155.823C1170.82 154.36 1172.87 152.896 1174.97 151.488C1180.23 147.915 1185.43 144.341 1190.81 140.884L1192.8 139.652C1184.44 132.037 1173.8 126.823 1162.05 125.183ZM1162.05 125.183L1162.34 127.47C1163.16 133.793 1163.74 140.183 1164.33 146.506C1164.56 149.024 1164.8 151.488 1164.97 154.006C1165.09 155.939 1167.25 156.933 1168.83 155.823C1170.82 154.36 1172.87 152.896 1174.97 151.488C1180.23 147.915 1185.43 144.341 1190.81 140.884L1192.8 139.652C1184.44 132.037 1173.8 126.823 1162.05 125.183ZM1162.05 125.183L1162.34 127.47C1163.16 133.793 1163.74 140.183 1164.33 146.506C1164.56 149.024 1164.8 151.488 1164.97 154.006C1165.09 155.939 1167.25 156.933 1168.83 155.823C1170.82 154.36 1172.87 152.896 1174.97 151.488C1180.23 147.915 1185.43 144.341 1190.81 140.884L1192.8 139.652C1184.44 132.037 1173.8 126.823 1162.05 125.183Z" fill="#0277BD"/>
</g>
<path d="M1360.7 359H1354.11L1364.15 329.909H1372.08L1382.11 359H1375.52L1368.23 336.557H1368L1360.7 359ZM1360.29 347.565H1375.86V352.366H1360.29V347.565ZM1389.23 359L1380.91 329.909H1387.62L1392.44 350.122H1392.68L1397.99 329.909H1403.75L1409.04 350.165H1409.3L1414.12 329.909H1420.83L1412.51 359H1406.52L1400.98 339.98H1400.75L1395.22 359H1389.23ZM1439.63 338.276C1439.52 337.13 1439.03 336.24 1438.17 335.605C1437.31 334.971 1436.14 334.653 1434.66 334.653C1433.66 334.653 1432.81 334.795 1432.12 335.08C1431.43 335.354 1430.9 335.738 1430.53 336.23C1430.17 336.723 1429.99 337.281 1429.99 337.906C1429.97 338.427 1430.08 338.882 1430.32 339.27C1430.56 339.658 1430.9 339.994 1431.32 340.278C1431.75 340.553 1432.24 340.795 1432.8 341.003C1433.36 341.202 1433.96 341.372 1434.59 341.514L1437.2 342.139C1438.47 342.423 1439.64 342.802 1440.7 343.276C1441.76 343.749 1442.68 344.331 1443.45 345.023C1444.23 345.714 1444.83 346.528 1445.26 347.466C1445.69 348.403 1445.92 349.478 1445.93 350.69C1445.92 352.471 1445.46 354.014 1444.56 355.321C1443.67 356.618 1442.38 357.627 1440.7 358.347C1439.02 359.057 1437 359.412 1434.63 359.412C1432.29 359.412 1430.24 359.052 1428.5 358.332C1426.76 357.613 1425.41 356.547 1424.44 355.136C1423.47 353.716 1422.96 351.959 1422.92 349.866H1428.87C1428.93 350.842 1429.21 351.656 1429.7 352.31C1430.21 352.954 1430.87 353.441 1431.71 353.773C1432.55 354.095 1433.5 354.256 1434.56 354.256C1435.6 354.256 1436.51 354.104 1437.28 353.801C1438.05 353.498 1438.65 353.077 1439.08 352.537C1439.51 351.997 1439.72 351.377 1439.72 350.676C1439.72 350.023 1439.52 349.473 1439.14 349.028C1438.76 348.583 1438.2 348.205 1437.46 347.892C1436.73 347.58 1435.84 347.295 1434.78 347.04L1431.61 346.244C1429.16 345.648 1427.22 344.715 1425.8 343.446C1424.38 342.177 1423.67 340.468 1423.68 338.318C1423.67 336.557 1424.14 335.018 1425.09 333.702C1426.04 332.385 1427.36 331.358 1429.02 330.619C1430.69 329.881 1432.58 329.511 1434.7 329.511C1436.86 329.511 1438.75 329.881 1440.36 330.619C1441.98 331.358 1443.24 332.385 1444.14 333.702C1445.04 335.018 1445.5 336.543 1445.53 338.276H1439.63ZM1459.32 359V329.909H1478.92V334.98H1465.47V341.912H1477.92V346.983H1465.47V353.929H1478.98V359H1459.32ZM1483.81 359V329.909H1489.96V342.736H1490.35L1500.82 329.909H1508.19L1497.39 342.935L1508.32 359H1500.96L1492.99 347.04L1489.96 350.733V359H1483.81ZM1526.94 338.276C1526.82 337.13 1526.34 336.24 1525.48 335.605C1524.61 334.971 1523.44 334.653 1521.97 334.653C1520.96 334.653 1520.12 334.795 1519.42 335.08C1518.73 335.354 1518.2 335.738 1517.83 336.23C1517.47 336.723 1517.29 337.281 1517.29 337.906C1517.27 338.427 1517.38 338.882 1517.62 339.27C1517.87 339.658 1518.2 339.994 1518.63 340.278C1519.06 340.553 1519.55 340.795 1520.11 341.003C1520.66 341.202 1521.26 341.372 1521.9 341.514L1524.51 342.139C1525.78 342.423 1526.94 342.802 1528 343.276C1529.06 343.749 1529.98 344.331 1530.76 345.023C1531.54 345.714 1532.14 346.528 1532.56 347.466C1533 348.403 1533.22 349.478 1533.23 350.69C1533.22 352.471 1532.77 354.014 1531.87 355.321C1530.98 356.618 1529.69 357.627 1528 358.347C1526.33 359.057 1524.31 359.412 1521.94 359.412C1519.59 359.412 1517.54 359.052 1515.8 358.332C1514.07 357.613 1512.72 356.547 1511.74 355.136C1510.77 353.716 1510.27 351.959 1510.22 349.866H1516.17C1516.24 350.842 1516.52 351.656 1517.01 352.31C1517.51 352.954 1518.18 353.441 1519.01 353.773C1519.86 354.095 1520.81 354.256 1521.87 354.256C1522.91 354.256 1523.81 354.104 1524.58 353.801C1525.36 353.498 1525.96 353.077 1526.38 352.537C1526.81 351.997 1527.02 351.377 1527.02 350.676C1527.02 350.023 1526.83 349.473 1526.44 349.028C1526.06 348.583 1525.5 348.205 1524.77 347.892C1524.04 347.58 1523.14 347.295 1522.08 347.04L1518.91 346.244C1516.46 345.648 1514.52 344.715 1513.1 343.446C1511.68 342.177 1510.98 340.468 1510.99 338.318C1510.98 336.557 1511.45 335.018 1512.39 333.702C1513.35 332.385 1514.66 331.358 1516.33 330.619C1517.99 329.881 1519.89 329.511 1522.01 329.511C1524.17 329.511 1526.05 329.881 1527.66 330.619C1529.28 331.358 1530.54 332.385 1531.44 333.702C1532.34 335.018 1532.81 336.543 1532.83 338.276H1526.94Z" fill="#0277BD"/>
<g clip-path="url(#clip3_204_8)">
<path fill-rule="evenodd" clip-rule="evenodd" d="M1417.79 209.645H1432.26V176.952L1461.89 209.645H1480.66L1443.85 169.226L1478.84 133.823H1459.44L1432.26 161.226V133.823H1417.79V209.645Z" fill="url(#paint0_linear_204_8)"/>
<path d="M1452.48 107.306L1503.87 136.5C1504.3 136.741 1504.65 137.09 1504.9 137.511C1505.15 137.933 1505.29 138.413 1505.29 138.903V197.29C1505.29 198.258 1505.82 199.194 1506.71 199.694L1552.55 225.742C1552.98 225.989 1553.46 226.121 1553.96 226.122C1554.45 226.124 1554.94 225.996 1555.37 225.752C1555.8 225.507 1556.16 225.154 1556.41 224.728C1556.66 224.302 1556.8 223.818 1556.81 223.323V109.629C1556.8 109.136 1556.67 108.653 1556.42 108.228C1556.17 107.803 1555.82 107.452 1555.39 107.21L1455.32 50.3871C1454.89 50.1395 1454.41 50.0084 1453.91 50.0066C1453.42 50.0049 1452.93 50.1326 1452.5 50.3772C1452.07 50.6217 1451.71 50.9746 1451.46 51.4007C1451.21 51.8269 1451.07 52.3115 1451.06 52.8064V104.903C1451.06 105.903 1451.61 106.806 1452.48 107.306Z" fill="url(#paint1_linear_204_8)"/>
<path d="M1496.69 211.903L1445.32 241.097C1444.89 241.343 1444.4 241.472 1443.9 241.472C1443.41 241.472 1442.92 241.343 1442.48 241.097L1383.94 207.838C1383.51 207.596 1383.15 207.245 1382.9 206.82C1382.65 206.395 1382.52 205.912 1382.52 205.419V138.903C1382.52 137.903 1383.06 136.984 1383.94 136.484L1435.32 107.29C1435.75 107.049 1436.11 106.698 1436.36 106.273C1436.61 105.848 1436.74 105.364 1436.74 104.871V52.8062C1436.74 52.3113 1436.6 51.8266 1436.35 51.4005C1436.1 50.9744 1435.74 50.6215 1435.31 50.377C1434.88 50.1324 1434.39 50.0047 1433.89 50.0064C1433.4 50.0082 1432.91 50.1393 1432.48 50.3869L1332.42 107.226C1331.99 107.468 1331.63 107.819 1331.38 108.244C1331.13 108.669 1331 109.152 1331 109.645V234.677C1331 235.661 1331.53 236.58 1332.42 237.097L1442.48 299.613C1443.35 300.097 1444.45 300.097 1445.32 299.613L1545.39 242.774C1545.82 242.533 1546.17 242.182 1546.42 241.756C1546.67 241.331 1546.8 240.847 1546.8 240.355C1546.8 239.862 1546.67 239.378 1546.42 238.953C1546.17 238.528 1545.82 238.176 1545.39 237.935L1499.53 211.887C1499.1 211.641 1498.61 211.511 1498.11 211.511C1497.62 211.511 1497.13 211.641 1496.69 211.887V211.903Z" fill="url(#paint2_linear_204_8)"/>
</g>
<defs>
<linearGradient id="paint0_linear_204_8" x1="1487.31" y1="205.306" x2="1452.31" y2="120.71" gradientUnits="userSpaceOnUse">
<stop stop-color="#426DDB"/>
<stop offset="1" stop-color="#3B4BDB"/>
</linearGradient>
<linearGradient id="paint1_linear_204_8" x1="1567.98" y1="216.032" x2="1468.84" y2="42.5322" gradientUnits="userSpaceOnUse">
<stop stop-color="#426DDB"/>
<stop offset="1" stop-color="#3B4BDB"/>
</linearGradient>
<linearGradient id="paint2_linear_204_8" x1="1467.02" y1="286.355" x2="1358.94" y2="92.4191" gradientUnits="userSpaceOnUse">
<stop stop-color="#2775FF"/>
<stop offset="1" stop-color="#188DFF"/>
</linearGradient>
<clipPath id="clip0_204_8">
<rect width="250" height="250" fill="white" transform="translate(50 50)"/>
</clipPath>
<clipPath id="clip1_204_8">
<rect width="222.222" height="250" fill="white" transform="translate(754 50)"/>
</clipPath>
<clipPath id="clip2_204_8">
<rect width="254.878" height="250" fill="white" transform="translate(1026 50)"/>
</clipPath>
<clipPath id="clip3_204_8">
<rect width="225.806" height="250" fill="white" transform="translate(1331 50)"/>
</clipPath>
</defs>
</svg>
